<svg width="286" height="130" viewBox="0 0 286 130" fill="none" xmlns="http://www.w3.org/2000/svg">
<g filter="url(#filter0_d_17_6693)">
<g clip-path="url(#clip0_17_6693)">
<rect x="11.5" y="11" width="255" height="100" rx="15" fill="white" fill-opacity="0.05" shape-rendering="crispEdges"/>
<path d="M43.024 45.144C42.064 45.144 41.176 44.988 40.36 44.676C39.556 44.352 38.854 43.902 38.254 43.326C37.666 42.738 37.204 42.054 36.868 41.274C36.532 40.494 36.364 39.636 36.364 38.7C36.364 37.764 36.532 36.906 36.868 36.126C37.204 35.346 37.672 34.668 38.272 34.092C38.872 33.504 39.574 33.054 40.378 32.742C41.194 32.418 42.082 32.256 43.042 32.256C44.014 32.256 44.908 32.424 45.724 32.76C46.552 33.084 47.254 33.57 47.83 34.218L46.66 35.352C46.18 34.848 45.64 34.476 45.04 34.236C44.44 33.984 43.798 33.858 43.114 33.858C42.406 33.858 41.746 33.978 41.134 34.218C40.534 34.458 40.012 34.794 39.568 35.226C39.124 35.658 38.776 36.174 38.524 36.774C38.284 37.362 38.164 38.004 38.164 38.7C38.164 39.396 38.284 40.044 38.524 40.644C38.776 41.232 39.124 41.742 39.568 42.174C40.012 42.606 40.534 42.942 41.134 43.182C41.746 43.422 42.406 43.542 43.114 43.542C43.798 43.542 44.44 43.422 45.04 43.182C45.64 42.93 46.18 42.546 46.66 42.03L47.83 43.164C47.254 43.812 46.552 44.304 45.724 44.64C44.908 44.976 44.008 45.144 43.024 45.144ZM53.861 45.108C53.045 45.108 52.325 44.958 51.701 44.658C51.089 44.358 50.609 43.902 50.261 43.29C49.925 42.666 49.757 41.886 49.757 40.95V35.46H51.485V40.752C51.485 41.688 51.707 42.39 52.151 42.858C52.607 43.326 53.243 43.56 54.059 43.56C54.659 43.56 55.181 43.44 55.625 43.2C56.069 42.948 56.411 42.588 56.651 42.12C56.891 41.64 57.011 41.064 57.011 40.392V35.46H58.739V45H57.101V42.426L57.371 43.11C57.059 43.746 56.591 44.238 55.967 44.586C55.343 44.934 54.641 45.108 53.861 45.108ZM64.7646 45.108C63.9726 45.108 63.2166 45 62.4966 44.784C61.7886 44.568 61.2306 44.304 60.8226 43.992L61.5426 42.624C61.9506 42.9 62.4546 43.134 63.0546 43.326C63.6546 43.518 64.2666 43.614 64.8906 43.614C65.6946 43.614 66.2706 43.5 66.6186 43.272C66.9786 43.044 67.1586 42.726 67.1586 42.318C67.1586 42.018 67.0506 41.784 66.8346 41.616C66.6186 41.448 66.3306 41.322 65.9706 41.238C65.6226 41.154 65.2326 41.082 64.8006 41.022C64.3686 40.95 63.9366 40.866 63.5046 40.77C63.0726 40.662 62.6766 40.518 62.3166 40.338C61.9566 40.146 61.6686 39.888 61.4526 39.564C61.2366 39.228 61.1286 38.784 61.1286 38.232C61.1286 37.656 61.2906 37.152 61.6146 36.72C61.9386 36.288 62.3946 35.958 62.9826 35.73C63.5826 35.49 64.2906 35.37 65.1066 35.37C65.7306 35.37 66.3606 35.448 66.9966 35.604C67.6446 35.748 68.1726 35.958 68.5806 36.234L67.8426 37.602C67.4106 37.314 66.9606 37.116 66.4926 37.008C66.0246 36.9 65.5566 36.846 65.0886 36.846C64.3326 36.846 63.7686 36.972 63.3966 37.224C63.0246 37.464 62.8386 37.776 62.8386 38.16C62.8386 38.484 62.9466 38.736 63.1626 38.916C63.3906 39.084 63.6786 39.216 64.0266 39.312C64.3866 39.408 64.7826 39.492 65.2146 39.564C65.6466 39.624 66.0786 39.708 66.5106 39.816C66.9426 39.912 67.3326 40.05 67.6806 40.23C68.0406 40.41 68.3286 40.662 68.5446 40.986C68.7726 41.31 68.8866 41.742 68.8866 42.282C68.8866 42.858 68.7186 43.356 68.3826 43.776C68.0466 44.196 67.5726 44.526 66.9606 44.766C66.3486 44.994 65.6166 45.108 64.7646 45.108ZM74.3222 45.108C73.3622 45.108 72.6182 44.85 72.0902 44.334C71.5622 43.818 71.2982 43.08 71.2982 42.12V33.372H73.0262V42.048C73.0262 42.564 73.1522 42.96 73.4042 43.236C73.6682 43.512 74.0402 43.65 74.5202 43.65C75.0602 43.65 75.5102 43.5 75.8702 43.2L76.4102 44.442C76.1462 44.67 75.8282 44.838 75.4562 44.946C75.0962 45.054 74.7182 45.108 74.3222 45.108ZM69.6782 36.882V35.46H75.7622V36.882H69.6782ZM82.2689 45.108C81.3089 45.108 80.4569 44.898 79.7129 44.478C78.9689 44.058 78.3809 43.482 77.9489 42.75C77.5169 42.006 77.3009 41.166 77.3009 40.23C77.3009 39.282 77.5169 38.442 77.9489 37.71C78.3809 36.978 78.9689 36.408 79.7129 36C80.4569 35.58 81.3089 35.37 82.2689 35.37C83.2169 35.37 84.0629 35.58 84.8069 36C85.5629 36.408 86.1509 36.978 86.5709 37.71C87.0029 38.43 87.2189 39.27 87.2189 40.23C87.2189 41.178 87.0029 42.018 86.5709 42.75C86.1509 43.482 85.5629 44.058 84.8069 44.478C84.0629 44.898 83.2169 45.108 82.2689 45.108ZM82.2689 43.596C82.8809 43.596 83.4269 43.458 83.9069 43.182C84.3989 42.906 84.7829 42.516 85.0589 42.012C85.3349 41.496 85.4729 40.902 85.4729 40.23C85.4729 39.546 85.3349 38.958 85.0589 38.466C84.7829 37.962 84.3989 37.572 83.9069 37.296C83.4269 37.02 82.8809 36.882 82.2689 36.882C81.6569 36.882 81.1109 37.02 80.6309 37.296C80.1509 37.572 79.7669 37.962 79.4789 38.466C79.1909 38.958 79.0469 39.546 79.0469 40.23C79.0469 40.902 79.1909 41.496 79.4789 42.012C79.7669 42.516 80.1509 42.906 80.6309 43.182C81.1109 43.458 81.6569 43.596 82.2689 43.596ZM101.543 35.37C102.311 35.37 102.989 35.52 103.577 35.82C104.165 36.12 104.621 36.576 104.945 37.188C105.281 37.8 105.449 38.574 105.449 39.51V45H103.721V39.708C103.721 38.784 103.505 38.088 103.073 37.62C102.641 37.152 102.035 36.918 101.255 36.918C100.679 36.918 100.175 37.038 99.7427 37.278C99.3107 37.518 98.9747 37.872 98.7347 38.34C98.5067 38.808 98.3927 39.39 98.3927 40.086V45H96.6647V39.708C96.6647 38.784 96.4487 38.088 96.0167 37.62C95.5967 37.152 94.9907 36.918 94.1987 36.918C93.6347 36.918 93.1367 37.038 92.7047 37.278C92.2727 37.518 91.9367 37.872 91.6967 38.34C91.4567 38.808 91.3367 39.39 91.3367 40.086V45H89.6087V35.46H91.2647V37.998L90.9947 37.35C91.2947 36.726 91.7567 36.24 92.3807 35.892C93.0047 35.544 93.7307 35.37 94.5587 35.37C95.4707 35.37 96.2567 35.598 96.9167 36.054C97.5767 36.498 98.0087 37.176 98.2127 38.088L97.5107 37.8C97.7987 37.068 98.3027 36.48 99.0227 36.036C99.7427 35.592 100.583 35.37 101.543 35.37ZM112.876 45.108C111.856 45.108 110.956 44.898 110.176 44.478C109.408 44.058 108.808 43.482 108.376 42.75C107.956 42.018 107.746 41.178 107.746 40.23C107.746 39.282 107.95 38.442 108.358 37.71C108.778 36.978 109.348 36.408 110.068 36C110.8 35.58 111.622 35.37 112.534 35.37C113.458 35.37 114.274 35.574 114.982 35.982C115.69 36.39 116.242 36.966 116.638 37.71C117.046 38.442 117.25 39.3 117.25 40.284C117.25 40.356 117.244 40.44 117.232 40.536C117.232 40.632 117.226 40.722 117.214 40.806H109.096V39.564H116.314L115.612 39.996C115.624 39.384 115.498 38.838 115.234 38.358C114.97 37.878 114.604 37.506 114.136 37.242C113.68 36.966 113.146 36.828 112.534 36.828C111.934 36.828 111.4 36.966 110.932 37.242C110.464 37.506 110.098 37.884 109.834 38.376C109.57 38.856 109.438 39.408 109.438 40.032V40.32C109.438 40.956 109.582 41.526 109.87 42.03C110.17 42.522 110.584 42.906 111.112 43.182C111.64 43.458 112.246 43.596 112.93 43.596C113.494 43.596 114.004 43.5 114.46 43.308C114.928 43.116 115.336 42.828 115.684 42.444L116.638 43.56C116.206 44.064 115.666 44.448 115.018 44.712C114.382 44.976 113.668 45.108 112.876 45.108ZM119.65 45V35.46H121.306V38.052L121.144 37.404C121.408 36.744 121.852 36.24 122.476 35.892C123.1 35.544 123.868 35.37 124.78 35.37V37.044C124.708 37.032 124.636 37.026 124.564 37.026C124.504 37.026 124.444 37.026 124.384 37.026C123.46 37.026 122.728 37.302 122.188 37.854C121.648 38.406 121.378 39.204 121.378 40.248V45H119.65Z" fill="white"/>
<path d="M43.48 66.064C45.2907 66.064 46.8493 66.4373 48.156 67.184C49.4627 67.9307 50.4707 69.0227 51.18 70.46C51.8893 71.8787 52.244 73.652 52.244 75.78C52.244 78.0387 51.8147 79.952 50.956 81.52C50.116 83.088 48.9493 84.2827 47.456 85.104C45.9627 85.9253 44.2267 86.336 42.248 86.336C41.2213 86.336 40.232 86.224 39.28 86C38.328 85.776 37.5067 85.44 36.816 84.992L38.496 81.66C39.0373 82.0333 39.616 82.2947 40.232 82.444C40.848 82.5747 41.492 82.64 42.164 82.64C43.844 82.64 45.1787 82.1267 46.168 81.1C47.176 80.0733 47.68 78.552 47.68 76.536C47.68 76.2 47.6707 75.8267 47.652 75.416C47.6333 75.0053 47.5867 74.5947 47.512 74.184L48.744 75.36C48.4267 76.088 47.9787 76.704 47.4 77.208C46.8213 77.6933 46.1493 78.0667 45.384 78.328C44.6187 78.5707 43.76 78.692 42.808 78.692C41.5573 78.692 40.4187 78.44 39.392 77.936C38.384 77.432 37.572 76.7227 36.956 75.808C36.3587 74.8933 36.06 73.82 36.06 72.588C36.06 71.244 36.3867 70.0867 37.04 69.116C37.712 68.1453 38.608 67.3987 39.728 66.876C40.8667 66.3347 42.1173 66.064 43.48 66.064ZM43.76 69.452C43.1067 69.452 42.5373 69.5733 42.052 69.816C41.5667 70.04 41.184 70.376 40.904 70.824C40.624 71.2533 40.484 71.7667 40.484 72.364C40.484 73.26 40.7827 73.9787 41.38 74.52C41.996 75.0427 42.808 75.304 43.816 75.304C44.4693 75.304 45.048 75.1827 45.552 74.94C46.0747 74.6787 46.476 74.324 46.756 73.876C47.036 73.428 47.176 72.924 47.176 72.364C47.176 71.804 47.036 71.3093 46.756 70.88C46.4947 70.432 46.112 70.0867 45.608 69.844C45.104 69.5827 44.488 69.452 43.76 69.452ZM62.5401 86.336C60.8975 86.336 59.4601 86.0933 58.2281 85.608C56.9961 85.104 56.0348 84.404 55.3441 83.508C54.6535 82.5933 54.3081 81.5293 54.3081 80.316C54.3081 79.1027 54.6441 78.076 55.3161 77.236C56.0068 76.3773 56.9681 75.7333 58.2001 75.304C59.4321 74.856 60.8788 74.632 62.5401 74.632C64.2201 74.632 65.6761 74.856 66.9081 75.304C68.1588 75.7333 69.1201 76.3773 69.7921 77.236C70.4828 78.076 70.8281 79.1027 70.8281 80.316C70.8281 81.5293 70.4828 82.5933 69.7921 83.508C69.1015 84.404 68.1308 85.104 66.8801 85.608C65.6481 86.0933 64.2015 86.336 62.5401 86.336ZM62.5401 83.004C63.6788 83.004 64.5748 82.752 65.2281 82.248C65.9001 81.744 66.2361 81.0533 66.2361 80.176C66.2361 79.2987 65.9001 78.6173 65.2281 78.132C64.5748 77.628 63.6788 77.376 62.5401 77.376C61.4201 77.376 60.5335 77.628 59.8801 78.132C59.2268 78.6173 58.9001 79.2987 58.9001 80.176C58.9001 81.0533 59.2268 81.744 59.8801 82.248C60.5335 82.752 61.4201 83.004 62.5401 83.004ZM62.5401 76.928C61.0281 76.928 59.7028 76.7227 58.5641 76.312C57.4441 75.9013 56.5668 75.304 55.9321 74.52C55.3161 73.7173 55.0081 72.7653 55.0081 71.664C55.0081 70.5067 55.3255 69.5173 55.9601 68.696C56.5948 67.856 57.4815 67.212 58.6201 66.764C59.7588 66.2973 61.0655 66.064 62.5401 66.064C64.0521 66.064 65.3681 66.2973 66.4881 66.764C67.6268 67.212 68.5135 67.856 69.1481 68.696C69.8015 69.5173 70.1281 70.5067 70.1281 71.664C70.1281 72.7653 69.8108 73.7173 69.1761 74.52C68.5601 75.304 67.6828 75.9013 66.5441 76.312C65.4055 76.7227 64.0708 76.928 62.5401 76.928ZM62.5401 74.268C63.4921 74.268 64.2388 74.0533 64.7801 73.624C65.3401 73.1947 65.6201 72.6067 65.6201 71.86C65.6201 71.076 65.3308 70.4693 64.7521 70.04C64.1921 69.6107 63.4548 69.396 62.5401 69.396C61.6441 69.396 60.9161 69.6107 60.3561 70.04C59.7961 70.4693 59.5161 71.076 59.5161 71.86C59.5161 72.6067 59.7868 73.1947 60.3281 73.624C60.8695 74.0533 61.6068 74.268 62.5401 74.268ZM75.7539 86.224C75.0073 86.224 74.3633 85.972 73.8219 85.468C73.2993 84.9453 73.0379 84.2827 73.0379 83.48C73.0379 82.6773 73.2993 82.0333 73.8219 81.548C74.3633 81.044 75.0073 80.792 75.7539 80.792C76.5193 80.792 77.1633 81.044 77.6859 81.548C78.2086 82.0333 78.4699 82.6773 78.4699 83.48C78.4699 84.2827 78.2086 84.9453 77.6859 85.468C77.1633 85.972 76.5193 86.224 75.7539 86.224ZM80.6115 86V83.06L88.1715 75.92C88.7688 75.3787 89.2075 74.8933 89.4875 74.464C89.7675 74.0347 89.9542 73.6427 90.0475 73.288C90.1595 72.9333 90.2155 72.6067 90.2155 72.308C90.2155 71.524 89.9448 70.9267 89.4035 70.516C88.8808 70.0867 88.1062 69.872 87.0795 69.872C86.2582 69.872 85.4928 70.0307 84.7835 70.348C84.0928 70.6653 83.5048 71.16 83.0195 71.832L79.7155 69.704C80.4622 68.584 81.5075 67.6973 82.8515 67.044C84.1955 66.3907 85.7448 66.064 87.4995 66.064C88.9555 66.064 90.2248 66.3067 91.3075 66.792C92.4088 67.2587 93.2582 67.9213 93.8555 68.78C94.4715 69.6387 94.7795 70.6653 94.7795 71.86C94.7795 72.4947 94.6955 73.1293 94.5275 73.764C94.3782 74.38 94.0608 75.0333 93.5755 75.724C93.1088 76.4147 92.4182 77.1893 91.5035 78.048L85.2315 83.956L84.3635 82.304H95.4235V86H80.6115ZM101.831 82.92L101.943 77.6L108.971 70.936H114.179L107.431 77.796L105.163 79.644L101.831 82.92ZM98.2191 86V65.224H102.587V86H98.2191ZM109.447 86L104.351 79.672L107.095 76.284L114.739 86H109.447Z" fill="#F49F1C"/>
<path opacity="0.1" d="M180.7 78.5714C187.7 78.5714 193.5 72.9464 193.5 65.7143C193.5 58.683 187.7 52.8571 180.7 52.8571C173.5 52.8571 167.9 58.683 167.9 65.7143C167.9 72.9464 173.5 78.5714 180.7 78.5714ZM270.3 78.5714C277.3 78.5714 283.1 72.9464 283.1 65.7143C283.1 58.683 277.3 52.8571 270.3 52.8571C263.1 52.8571 257.5 58.683 257.5 65.7143C257.5 72.9464 263.1 78.5714 270.3 78.5714ZM276.7 85H263.9C260.3 85 257.1 86.6071 254.7 88.817C262.9 93.2366 268.5 101.272 269.9 110.714H283.1C286.5 110.714 289.5 107.902 289.5 104.286V97.8571C289.5 90.8259 283.7 85 276.7 85ZM225.5 85C237.7 85 247.9 74.9554 247.9 62.5C247.9 50.2455 237.7 40 225.5 40C213.1 40 203.1 50.2455 203.1 62.5C203.1 74.9554 213.1 85 225.5 85ZM240.7 91.4286H239.1C234.9 93.4375 230.3 94.6429 225.5 94.6429C220.5 94.6429 215.9 93.4375 211.7 91.4286H210.1C197.3 91.4286 187.1 101.875 187.1 114.732V120.357C187.1 125.781 191.3 130 196.7 130H254.3C259.5 130 263.9 125.781 263.9 120.357V114.732C263.9 101.875 253.5 91.4286 240.7 91.4286ZM196.1 88.817C193.7 86.6071 190.5 85 187.1 85H174.3C167.1 85 161.5 90.8259 161.5 97.8571V104.286C161.5 107.902 164.3 110.714 167.9 110.714H180.9C182.3 101.272 187.9 93.2366 196.1 88.817Z" fill="white"/>
</g>
<rect x="12" y="11.5" width="254" height="99" rx="14.5" stroke="url(#paint0_linear_17_6693)" stroke-opacity="0.3" shape-rendering="crispEdges"/>
</g>
<defs>
<filter id="filter0_d_17_6693" x="0.5" y="0" width="285" height="130" filterUnits="userSpaceOnUse" color-interpolation-filters="sRGB">
<feFlood flood-opacity="0" result="BackgroundImageFix"/>
<feColorMatrix in="SourceAlpha" type="matrix" values="0 0 0 0 0 0 0 0 0 0 0 0 0 0 0 0 0 0 127 0" result="hardAlpha"/>
<feOffset dx="4" dy="4"/>
<feGaussianBlur stdDeviation="7.5"/>
<feComposite in2="hardAlpha" operator="out"/>
<feColorMatrix type="matrix" values="0 0 0 0 0 0 0 0 0 0 0 0 0 0 0 0 0 0 0.1 0"/>
<feBlend mode="normal" in2="BackgroundImageFix" result="effect1_dropShadow_17_6693"/>
<feBlend mode="normal" in="SourceGraphic" in2="effect1_dropShadow_17_6693" result="shape"/>
</filter>
<linearGradient id="paint0_linear_17_6693" x1="-19.4305" y1="-9.33731" x2="51.9922" y2="167.54" gradientUnits="userSpaceOnUse">
<stop stop-color="white"/>
<stop offset="1" stop-color="white" stop-opacity="0"/>
</linearGradient>
<clipPath id="clip0_17_6693">
<rect x="11.5" y="11" width="255" height="100" rx="15" fill="white"/>
</clipPath>
</defs>
</svg>
