<svg width="286" height="130" viewBox="0 0 286 130" fill="none" xmlns="http://www.w3.org/2000/svg">
<g filter="url(#filter0_d_17_6703)">
<g clip-path="url(#clip0_17_6703)">
<rect x="11.5" y="11" width="255" height="100" rx="15" fill="white" fill-opacity="0.05" shape-rendering="crispEdges"/>
<path d="M43.024 45.144C42.064 45.144 41.176 44.988 40.36 44.676C39.556 44.352 38.854 43.902 38.254 43.326C37.666 42.738 37.204 42.054 36.868 41.274C36.532 40.494 36.364 39.636 36.364 38.7C36.364 37.764 36.532 36.906 36.868 36.126C37.204 35.346 37.672 34.668 38.272 34.092C38.872 33.504 39.574 33.054 40.378 32.742C41.194 32.418 42.082 32.256 43.042 32.256C44.014 32.256 44.908 32.424 45.724 32.76C46.552 33.084 47.254 33.57 47.83 34.218L46.66 35.352C46.18 34.848 45.64 34.476 45.04 34.236C44.44 33.984 43.798 33.858 43.114 33.858C42.406 33.858 41.746 33.978 41.134 34.218C40.534 34.458 40.012 34.794 39.568 35.226C39.124 35.658 38.776 36.174 38.524 36.774C38.284 37.362 38.164 38.004 38.164 38.7C38.164 39.396 38.284 40.044 38.524 40.644C38.776 41.232 39.124 41.742 39.568 42.174C40.012 42.606 40.534 42.942 41.134 43.182C41.746 43.422 42.406 43.542 43.114 43.542C43.798 43.542 44.44 43.422 45.04 43.182C45.64 42.93 46.18 42.546 46.66 42.03L47.83 43.164C47.254 43.812 46.552 44.304 45.724 44.64C44.908 44.976 44.008 45.144 43.024 45.144ZM53.861 45.108C53.045 45.108 52.325 44.958 51.701 44.658C51.089 44.358 50.609 43.902 50.261 43.29C49.925 42.666 49.757 41.886 49.757 40.95V35.46H51.485V40.752C51.485 41.688 51.707 42.39 52.151 42.858C52.607 43.326 53.243 43.56 54.059 43.56C54.659 43.56 55.181 43.44 55.625 43.2C56.069 42.948 56.411 42.588 56.651 42.12C56.891 41.64 57.011 41.064 57.011 40.392V35.46H58.739V45H57.101V42.426L57.371 43.11C57.059 43.746 56.591 44.238 55.967 44.586C55.343 44.934 54.641 45.108 53.861 45.108ZM62.0286 45V35.46H63.6846V38.052L63.5226 37.404C63.7866 36.744 64.2306 36.24 64.8546 35.892C65.4786 35.544 66.2466 35.37 67.1586 35.37V37.044C67.0866 37.032 67.0146 37.026 66.9426 37.026C66.8826 37.026 66.8226 37.026 66.7626 37.026C65.8386 37.026 65.1066 37.302 64.5666 37.854C64.0266 38.406 63.7566 39.204 63.7566 40.248V45H62.0286ZM69.2884 45V35.46H70.9444V38.052L70.7824 37.404C71.0464 36.744 71.4904 36.24 72.1144 35.892C72.7384 35.544 73.5064 35.37 74.4184 35.37V37.044C74.3464 37.032 74.2744 37.026 74.2024 37.026C74.1424 37.026 74.0824 37.026 74.0224 37.026C73.0984 37.026 72.3664 37.302 71.8264 37.854C71.2864 38.406 71.0164 39.204 71.0164 40.248V45H69.2884ZM80.7083 45.108C79.6883 45.108 78.7883 44.898 78.0083 44.478C77.2403 44.058 76.6403 43.482 76.2083 42.75C75.7883 42.018 75.5783 41.178 75.5783 40.23C75.5783 39.282 75.7823 38.442 76.1903 37.71C76.6103 36.978 77.1803 36.408 77.9003 36C78.6323 35.58 79.4543 35.37 80.3663 35.37C81.2903 35.37 82.1063 35.574 82.8143 35.982C83.5223 36.39 84.0743 36.966 84.4703 37.71C84.8783 38.442 85.0823 39.3 85.0823 40.284C85.0823 40.356 85.0763 40.44 85.0643 40.536C85.0643 40.632 85.0583 40.722 85.0463 40.806H76.9283V39.564H84.1463L83.4443 39.996C83.4563 39.384 83.3303 38.838 83.0663 38.358C82.8023 37.878 82.4363 37.506 81.9683 37.242C81.5123 36.966 80.9783 36.828 80.3663 36.828C79.7663 36.828 79.2323 36.966 78.7643 37.242C78.2963 37.506 77.9303 37.884 77.6663 38.376C77.4023 38.856 77.2703 39.408 77.2703 40.032V40.32C77.2703 40.956 77.4143 41.526 77.7023 42.03C78.0023 42.522 78.4163 42.906 78.9443 43.182C79.4723 43.458 80.0783 43.596 80.7623 43.596C81.3263 43.596 81.8363 43.5 82.2923 43.308C82.7603 43.116 83.1683 42.828 83.5163 42.444L84.4703 43.56C84.0383 44.064 83.4983 44.448 82.8503 44.712C82.2143 44.976 81.5003 45.108 80.7083 45.108ZM92.5758 35.37C93.3558 35.37 94.0398 35.52 94.6278 35.82C95.2278 36.12 95.6958 36.576 96.0318 37.188C96.3678 37.8 96.5358 38.574 96.5358 39.51V45H94.8078V39.708C94.8078 38.784 94.5798 38.088 94.1238 37.62C93.6798 37.152 93.0498 36.918 92.2338 36.918C91.6218 36.918 91.0878 37.038 90.6318 37.278C90.1758 37.518 89.8218 37.872 89.5698 38.34C89.3298 38.808 89.2098 39.39 89.2098 40.086V45H87.4818V35.46H89.1378V38.034L88.8678 37.35C89.1798 36.726 89.6598 36.24 90.3078 35.892C90.9558 35.544 91.7118 35.37 92.5758 35.37ZM103.892 45.108C102.92 45.108 102.05 44.898 101.282 44.478C100.526 44.058 99.9317 43.482 99.4997 42.75C99.0677 42.018 98.8517 41.178 98.8517 40.23C98.8517 39.282 99.0677 38.442 99.4997 37.71C99.9317 36.978 100.526 36.408 101.282 36C102.05 35.58 102.92 35.37 103.892 35.37C104.756 35.37 105.524 35.544 106.196 35.892C106.88 36.228 107.408 36.732 107.78 37.404L106.466 38.25C106.154 37.782 105.77 37.44 105.314 37.224C104.87 36.996 104.39 36.882 103.874 36.882C103.25 36.882 102.692 37.02 102.2 37.296C101.708 37.572 101.318 37.962 101.03 38.466C100.742 38.958 100.598 39.546 100.598 40.23C100.598 40.914 100.742 41.508 101.03 42.012C101.318 42.516 101.708 42.906 102.2 43.182C102.692 43.458 103.25 43.596 103.874 43.596C104.39 43.596 104.87 43.488 105.314 43.272C105.77 43.044 106.154 42.696 106.466 42.228L107.78 43.056C107.408 43.716 106.88 44.226 106.196 44.586C105.524 44.934 104.756 45.108 103.892 45.108ZM110.308 48.6C109.852 48.6 109.408 48.522 108.976 48.366C108.544 48.222 108.172 48.006 107.86 47.718L108.598 46.422C108.838 46.65 109.102 46.824 109.39 46.944C109.678 47.064 109.984 47.124 110.308 47.124C110.728 47.124 111.076 47.016 111.352 46.8C111.628 46.584 111.886 46.2 112.126 45.648L112.72 44.334L112.9 44.118L116.644 35.46H118.336L113.71 45.954C113.434 46.626 113.122 47.154 112.774 47.538C112.438 47.922 112.066 48.192 111.658 48.348C111.25 48.516 110.8 48.6 110.308 48.6ZM112.576 45.306L108.22 35.46H110.02L113.728 43.956L112.576 45.306Z" fill="white"/>
<path d="M36.424 86V83.06L43.984 75.92C44.5813 75.3787 45.02 74.8933 45.3 74.464C45.58 74.0347 45.7667 73.6427 45.86 73.288C45.972 72.9333 46.028 72.6067 46.028 72.308C46.028 71.524 45.7573 70.9267 45.216 70.516C44.6933 70.0867 43.9187 69.872 42.892 69.872C42.0707 69.872 41.3053 70.0307 40.596 70.348C39.9053 70.6653 39.3173 71.16 38.832 71.832L35.528 69.704C36.2747 68.584 37.32 67.6973 38.664 67.044C40.008 66.3907 41.5573 66.064 43.312 66.064C44.768 66.064 46.0373 66.3067 47.12 66.792C48.2213 67.2587 49.0707 67.9213 49.668 68.78C50.284 69.6387 50.592 70.6653 50.592 71.86C50.592 72.4947 50.508 73.1293 50.34 73.764C50.1907 74.38 49.8733 75.0333 49.388 75.724C48.9213 76.4147 48.2307 77.1893 47.316 78.048L41.044 83.956L40.176 82.304H51.236V86H36.424ZM55.9571 86.224C55.2104 86.224 54.5664 85.972 54.0251 85.468C53.5024 84.9453 53.2411 84.2827 53.2411 83.48C53.2411 82.6773 53.5024 82.0333 54.0251 81.548C54.5664 81.044 55.2104 80.792 55.9571 80.792C56.7224 80.792 57.3664 81.044 57.8891 81.548C58.4117 82.0333 58.6731 82.6773 58.6731 83.48C58.6731 84.2827 58.4117 84.9453 57.8891 85.468C57.3664 85.972 56.7224 86.224 55.9571 86.224ZM65.2452 82.92L65.3572 77.6L72.3852 70.936H77.5932L70.8452 77.796L68.5772 79.644L65.2452 82.92ZM61.6332 86V65.224H66.0012V86H61.6332ZM72.8612 86L67.7652 79.672L70.5092 76.284L78.1532 86H72.8612Z" fill="#F49F1C"/>
<path opacity="0.1" d="M297 50H180C176.344 50 173.5 53.0469 173.5 56.5V121.5C173.5 125.156 176.344 128 180 128H297C300.453 128 303.5 125.156 303.5 121.5V56.5C303.5 53.0469 300.453 50 297 50ZM183.25 118.25V105.25C190.359 105.25 196.25 111.141 196.25 118.25H183.25ZM183.25 72.75V59.75H196.25C196.25 67.0625 190.359 72.75 183.25 72.75ZM238.5 108.5C229.359 108.5 222.25 99.9688 222.25 89C222.25 78.2344 229.359 69.5 238.5 69.5C247.438 69.5 254.75 78.2344 254.75 89C254.75 99.9688 247.438 108.5 238.5 108.5ZM293.75 118.25H280.75C280.75 111.141 286.438 105.25 293.75 105.25V118.25ZM293.75 72.75C286.438 72.75 280.75 67.0625 280.75 59.75H293.75V72.75Z" fill="white"/>
</g>
<rect x="12" y="11.5" width="254" height="99" rx="14.5" stroke="url(#paint0_linear_17_6703)" stroke-opacity="0.3" shape-rendering="crispEdges"/>
</g>
<defs>
<filter id="filter0_d_17_6703" x="0.5" y="0" width="285" height="130" filterUnits="userSpaceOnUse" color-interpolation-filters="sRGB">
<feFlood flood-opacity="0" result="BackgroundImageFix"/>
<feColorMatrix in="SourceAlpha" type="matrix" values="0 0 0 0 0 0 0 0 0 0 0 0 0 0 0 0 0 0 127 0" result="hardAlpha"/>
<feOffset dx="4" dy="4"/>
<feGaussianBlur stdDeviation="7.5"/>
<feComposite in2="hardAlpha" operator="out"/>
<feColorMatrix type="matrix" values="0 0 0 0 0 0 0 0 0 0 0 0 0 0 0 0 0 0 0.1 0"/>
<feBlend mode="normal" in2="BackgroundImageFix" result="effect1_dropShadow_17_6703"/>
<feBlend mode="normal" in="SourceGraphic" in2="effect1_dropShadow_17_6703" result="shape"/>
</filter>
<linearGradient id="paint0_linear_17_6703" x1="-19.4305" y1="-9.33731" x2="51.9922" y2="167.54" gradientUnits="userSpaceOnUse">
<stop stop-color="white"/>
<stop offset="1" stop-color="white" stop-opacity="0"/>
</linearGradient>
<clipPath id="clip0_17_6703">
<rect x="11.5" y="11" width="255" height="100" rx="15" fill="white"/>
</clipPath>
</defs>
</svg>
