<svg width="286" height="130" viewBox="0 0 286 130" fill="none" xmlns="http://www.w3.org/2000/svg">
<g filter="url(#filter0_d_17_6681)">
<g clip-path="url(#clip0_17_6681)">
<rect x="11.5" y="11" width="255" height="100" rx="15" fill="white" fill-opacity="0.05" shape-rendering="crispEdges"/>
<path d="M39.028 37.836H45.508V39.366H39.028V37.836ZM39.19 43.434H46.534V45H37.39V32.4H46.282V33.966H39.19V43.434ZM47.5997 45L51.7037 39.672L51.6857 40.554L47.7797 35.46H49.7057L52.6937 39.384H51.9557L54.9437 35.46H56.8337L52.8737 40.59L52.8917 39.672L57.0317 45H55.0697L51.9197 40.824L52.6217 40.932L49.5257 45H47.5997ZM62.7589 45.108C61.7869 45.108 60.9169 44.898 60.1489 44.478C59.3929 44.058 58.7989 43.482 58.3669 42.75C57.9349 42.018 57.7189 41.178 57.7189 40.23C57.7189 39.282 57.9349 38.442 58.3669 37.71C58.7989 36.978 59.3929 36.408 60.1489 36C60.9169 35.58 61.7869 35.37 62.7589 35.37C63.6229 35.37 64.3909 35.544 65.0629 35.892C65.7469 36.228 66.2749 36.732 66.6469 37.404L65.3329 38.25C65.0209 37.782 64.6369 37.44 64.1809 37.224C63.7369 36.996 63.2569 36.882 62.7409 36.882C62.1169 36.882 61.5589 37.02 61.0669 37.296C60.5749 37.572 60.1849 37.962 59.8969 38.466C59.6089 38.958 59.4649 39.546 59.4649 40.23C59.4649 40.914 59.6089 41.508 59.8969 42.012C60.1849 42.516 60.5749 42.906 61.0669 43.182C61.5589 43.458 62.1169 43.596 62.7409 43.596C63.2569 43.596 63.7369 43.488 64.1809 43.272C64.6369 43.044 65.0209 42.696 65.3329 42.228L66.6469 43.056C66.2749 43.716 65.7469 44.226 65.0629 44.586C64.3909 44.934 63.6229 45.108 62.7589 45.108ZM73.855 35.37C74.635 35.37 75.319 35.52 75.907 35.82C76.507 36.12 76.975 36.576 77.311 37.188C77.647 37.8 77.815 38.574 77.815 39.51V45H76.087V39.708C76.087 38.784 75.859 38.088 75.403 37.62C74.959 37.152 74.329 36.918 73.513 36.918C72.901 36.918 72.367 37.038 71.911 37.278C71.455 37.518 71.101 37.872 70.849 38.34C70.609 38.808 70.489 39.39 70.489 40.086V45H68.761V31.644H70.489V38.034L70.147 37.35C70.459 36.726 70.939 36.24 71.587 35.892C72.235 35.544 72.991 35.37 73.855 35.37ZM86.935 45V42.984L86.845 42.606V39.168C86.845 38.436 86.629 37.872 86.197 37.476C85.777 37.068 85.141 36.864 84.289 36.864C83.725 36.864 83.173 36.96 82.633 37.152C82.093 37.332 81.637 37.578 81.265 37.89L80.545 36.594C81.037 36.198 81.625 35.898 82.309 35.694C83.005 35.478 83.731 35.37 84.487 35.37C85.795 35.37 86.803 35.688 87.511 36.324C88.219 36.96 88.573 37.932 88.573 39.24V45H86.935ZM83.803 45.108C83.095 45.108 82.471 44.988 81.931 44.748C81.403 44.508 80.995 44.178 80.707 43.758C80.419 43.326 80.275 42.84 80.275 42.3C80.275 41.784 80.395 41.316 80.635 40.896C80.887 40.476 81.289 40.14 81.841 39.888C82.405 39.636 83.161 39.51 84.109 39.51H87.133V40.752H84.181C83.317 40.752 82.735 40.896 82.435 41.184C82.135 41.472 81.985 41.82 81.985 42.228C81.985 42.696 82.171 43.074 82.543 43.362C82.915 43.638 83.431 43.776 84.091 43.776C84.739 43.776 85.303 43.632 85.783 43.344C86.275 43.056 86.629 42.636 86.845 42.084L87.187 43.272C86.959 43.836 86.557 44.286 85.981 44.622C85.405 44.946 84.679 45.108 83.803 45.108ZM96.8648 35.37C97.6448 35.37 98.3288 35.52 98.9168 35.82C99.5168 36.12 99.9848 36.576 100.321 37.188C100.657 37.8 100.825 38.574 100.825 39.51V45H99.0968V39.708C99.0968 38.784 98.8688 38.088 98.4128 37.62C97.9688 37.152 97.3388 36.918 96.5228 36.918C95.9108 36.918 95.3768 37.038 94.9208 37.278C94.4648 37.518 94.1108 37.872 93.8588 38.34C93.6188 38.808 93.4988 39.39 93.4988 40.086V45H91.7708V35.46H93.4268V38.034L93.1568 37.35C93.4688 36.726 93.9488 36.24 94.5968 35.892C95.2448 35.544 96.0008 35.37 96.8648 35.37ZM108.199 48.6C107.323 48.6 106.471 48.474 105.643 48.222C104.827 47.982 104.161 47.634 103.645 47.178L104.473 45.846C104.917 46.23 105.463 46.53 106.111 46.746C106.759 46.974 107.437 47.088 108.145 47.088C109.273 47.088 110.101 46.824 110.629 46.296C111.157 45.768 111.421 44.964 111.421 43.884V41.868L111.601 39.978L111.511 38.07V35.46H113.149V43.704C113.149 45.384 112.729 46.62 111.889 47.412C111.049 48.204 109.819 48.6 108.199 48.6ZM107.983 44.604C107.059 44.604 106.231 44.412 105.499 44.028C104.779 43.632 104.203 43.086 103.771 42.39C103.351 41.694 103.141 40.89 103.141 39.978C103.141 39.054 103.351 38.25 103.771 37.566C104.203 36.87 104.779 36.33 105.499 35.946C106.231 35.562 107.059 35.37 107.983 35.37C108.799 35.37 109.543 35.538 110.215 35.874C110.887 36.198 111.421 36.702 111.817 37.386C112.225 38.07 112.429 38.934 112.429 39.978C112.429 41.01 112.225 41.868 111.817 42.552C111.421 43.236 110.887 43.752 110.215 44.1C109.543 44.436 108.799 44.604 107.983 44.604ZM108.181 43.092C108.817 43.092 109.381 42.96 109.873 42.696C110.365 42.432 110.749 42.066 111.025 41.598C111.313 41.13 111.457 40.59 111.457 39.978C111.457 39.366 111.313 38.826 111.025 38.358C110.749 37.89 110.365 37.53 109.873 37.278C109.381 37.014 108.817 36.882 108.181 36.882C107.545 36.882 106.975 37.014 106.471 37.278C105.979 37.53 105.589 37.89 105.301 38.358C105.025 38.826 104.887 39.366 104.887 39.978C104.887 40.59 105.025 41.13 105.301 41.598C105.589 42.066 105.979 42.432 106.471 42.696C106.975 42.96 107.545 43.092 108.181 43.092ZM120.699 45.108C119.679 45.108 118.779 44.898 117.999 44.478C117.231 44.058 116.631 43.482 116.199 42.75C115.779 42.018 115.569 41.178 115.569 40.23C115.569 39.282 115.773 38.442 116.181 37.71C116.601 36.978 117.171 36.408 117.891 36C118.623 35.58 119.445 35.37 120.357 35.37C121.281 35.37 122.097 35.574 122.805 35.982C123.513 36.39 124.065 36.966 124.461 37.71C124.869 38.442 125.073 39.3 125.073 40.284C125.073 40.356 125.067 40.44 125.055 40.536C125.055 40.632 125.049 40.722 125.037 40.806H116.919V39.564H124.137L123.435 39.996C123.447 39.384 123.321 38.838 123.057 38.358C122.793 37.878 122.427 37.506 121.959 37.242C121.503 36.966 120.969 36.828 120.357 36.828C119.757 36.828 119.223 36.966 118.755 37.242C118.287 37.506 117.921 37.884 117.657 38.376C117.393 38.856 117.261 39.408 117.261 40.032V40.32C117.261 40.956 117.405 41.526 117.693 42.03C117.993 42.522 118.407 42.906 118.935 43.182C119.463 43.458 120.069 43.596 120.753 43.596C121.317 43.596 121.827 43.5 122.283 43.308C122.751 43.116 123.159 42.828 123.507 42.444L124.461 43.56C124.029 44.064 123.489 44.448 122.841 44.712C122.205 44.976 121.491 45.108 120.699 45.108Z" fill="white"/>
<path d="M36.424 86V83.06L43.984 75.92C44.5813 75.3787 45.02 74.8933 45.3 74.464C45.58 74.0347 45.7667 73.6427 45.86 73.288C45.972 72.9333 46.028 72.6067 46.028 72.308C46.028 71.524 45.7573 70.9267 45.216 70.516C44.6933 70.0867 43.9187 69.872 42.892 69.872C42.0707 69.872 41.3053 70.0307 40.596 70.348C39.9053 70.6653 39.3173 71.16 38.832 71.832L35.528 69.704C36.2747 68.584 37.32 67.6973 38.664 67.044C40.008 66.3907 41.5573 66.064 43.312 66.064C44.768 66.064 46.0373 66.3067 47.12 66.792C48.2213 67.2587 49.0707 67.9213 49.668 68.78C50.284 69.6387 50.592 70.6653 50.592 71.86C50.592 72.4947 50.508 73.1293 50.34 73.764C50.1907 74.38 49.8733 75.0333 49.388 75.724C48.9213 76.4147 48.2307 77.1893 47.316 78.048L41.044 83.956L40.176 82.304H51.236V86H36.424ZM55.9571 86.224C55.2104 86.224 54.5664 85.972 54.0251 85.468C53.5024 84.9453 53.2411 84.2827 53.2411 83.48C53.2411 82.6773 53.5024 82.0333 54.0251 81.548C54.5664 81.044 55.2104 80.792 55.9571 80.792C56.7224 80.792 57.3664 81.044 57.8891 81.548C58.4117 82.0333 58.6731 82.6773 58.6731 83.48C58.6731 84.2827 58.4117 84.9453 57.8891 85.468C57.3664 85.972 56.7224 86.224 55.9571 86.224ZM60.4852 81.884V78.832L69.7252 66.4H74.4852L65.4412 78.832L63.2292 78.188H78.6572V81.884H60.4852ZM71.0412 86V81.884L71.1812 78.188V74.52H75.4652V86H71.0412ZM84.5499 82.92L84.6619 77.6L91.6899 70.936H96.8979L90.1499 77.796L87.8819 79.644L84.5499 82.92ZM80.9379 86V65.224H85.3059V86H80.9379ZM92.1659 86L87.0699 79.672L89.8139 76.284L97.4579 86H92.1659Z" fill="#F49F1C"/>
<path opacity="0.1" d="M155.613 52.4098C155.613 55.5966 157.877 57.8728 161.045 57.8728H242.528V68.7988C242.528 73.8066 248.187 76.0828 251.582 72.6685L269.689 54.4584C271.953 52.4098 271.953 48.9954 269.689 46.9468L251.582 28.7368C248.187 25.0948 242.528 27.5987 242.528 32.3788V43.3048H161.045C157.877 43.3048 155.613 45.8087 155.613 48.7678V52.4098ZM266.068 87.0088H184.585V76.0828C184.585 71.3027 178.7 68.7988 175.305 72.4408L157.198 90.6509C154.934 92.6995 154.934 96.1139 157.198 98.1625L175.305 116.372C178.7 119.787 184.585 117.511 184.585 112.503V101.577H266.068C269.01 101.577 271.5 99.3006 271.5 96.1139V92.4719C271.5 89.5127 269.01 87.0088 266.068 87.0088Z" fill="white"/>
</g>
<rect x="12" y="11.5" width="254" height="99" rx="14.5" stroke="url(#paint0_linear_17_6681)" stroke-opacity="0.3" shape-rendering="crispEdges"/>
</g>
<defs>
<filter id="filter0_d_17_6681" x="0.5" y="0" width="285" height="130" filterUnits="userSpaceOnUse" color-interpolation-filters="sRGB">
<feFlood flood-opacity="0" result="BackgroundImageFix"/>
<feColorMatrix in="SourceAlpha" type="matrix" values="0 0 0 0 0 0 0 0 0 0 0 0 0 0 0 0 0 0 127 0" result="hardAlpha"/>
<feOffset dx="4" dy="4"/>
<feGaussianBlur stdDeviation="7.5"/>
<feComposite in2="hardAlpha" operator="out"/>
<feColorMatrix type="matrix" values="0 0 0 0 0 0 0 0 0 0 0 0 0 0 0 0 0 0 0.1 0"/>
<feBlend mode="normal" in2="BackgroundImageFix" result="effect1_dropShadow_17_6681"/>
<feBlend mode="normal" in="SourceGraphic" in2="effect1_dropShadow_17_6681" result="shape"/>
</filter>
<linearGradient id="paint0_linear_17_6681" x1="-19.4305" y1="-9.33731" x2="51.9922" y2="167.54" gradientUnits="userSpaceOnUse">
<stop stop-color="white"/>
<stop offset="1" stop-color="white" stop-opacity="0"/>
</linearGradient>
<clipPath id="clip0_17_6681">
<rect x="11.5" y="11" width="255" height="100" rx="15" fill="white"/>
</clipPath>
</defs>
</svg>
