<svg width="286" height="130" viewBox="0 0 286 130" fill="none" xmlns="http://www.w3.org/2000/svg">
<g filter="url(#filter0_d_17_6698)">
<g clip-path="url(#clip0_17_6698)">
<rect x="11.5" y="11" width="255" height="100" rx="15" fill="white" fill-opacity="0.05" shape-rendering="crispEdges"/>
<path d="M39.892 45V33.966H35.572V32.4H45.994V33.966H41.674V45H39.892ZM47.4739 45V35.46H49.1299V38.052L48.9679 37.404C49.2319 36.744 49.6759 36.24 50.2999 35.892C50.9239 35.544 51.6919 35.37 52.6039 35.37V37.044C52.5319 37.032 52.4599 37.026 52.3879 37.026C52.3279 37.026 52.2679 37.026 52.2079 37.026C51.2839 37.026 50.5519 37.302 50.0119 37.854C49.4719 38.406 49.2019 39.204 49.2019 40.248V45H47.4739ZM59.9526 45V42.984L59.8626 42.606V39.168C59.8626 38.436 59.6466 37.872 59.2146 37.476C58.7946 37.068 58.1586 36.864 57.3066 36.864C56.7426 36.864 56.1906 36.96 55.6506 37.152C55.1106 37.332 54.6546 37.578 54.2826 37.89L53.5626 36.594C54.0546 36.198 54.6426 35.898 55.3266 35.694C56.0226 35.478 56.7486 35.37 57.5046 35.37C58.8126 35.37 59.8206 35.688 60.5286 36.324C61.2366 36.96 61.5906 37.932 61.5906 39.24V45H59.9526ZM56.8206 45.108C56.1126 45.108 55.4886 44.988 54.9486 44.748C54.4206 44.508 54.0126 44.178 53.7246 43.758C53.4366 43.326 53.2926 42.84 53.2926 42.3C53.2926 41.784 53.4126 41.316 53.6526 40.896C53.9046 40.476 54.3066 40.14 54.8586 39.888C55.4226 39.636 56.1786 39.51 57.1266 39.51H60.1506V40.752H57.1986C56.3346 40.752 55.7526 40.896 55.4526 41.184C55.1526 41.472 55.0026 41.82 55.0026 42.228C55.0026 42.696 55.1886 43.074 55.5606 43.362C55.9326 43.638 56.4486 43.776 57.1086 43.776C57.7566 43.776 58.3206 43.632 58.8006 43.344C59.2926 43.056 59.6466 42.636 59.8626 42.084L60.2046 43.272C59.9766 43.836 59.5746 44.286 58.9986 44.622C58.4226 44.946 57.6966 45.108 56.8206 45.108ZM69.8824 35.37C70.6624 35.37 71.3464 35.52 71.9344 35.82C72.5344 36.12 73.0024 36.576 73.3384 37.188C73.6744 37.8 73.8424 38.574 73.8424 39.51V45H72.1144V39.708C72.1144 38.784 71.8864 38.088 71.4304 37.62C70.9864 37.152 70.3564 36.918 69.5404 36.918C68.9284 36.918 68.3944 37.038 67.9384 37.278C67.4824 37.518 67.1284 37.872 66.8764 38.34C66.6364 38.808 66.5164 39.39 66.5164 40.086V45H64.7884V35.46H66.4444V38.034L66.1744 37.35C66.4864 36.726 66.9664 36.24 67.6144 35.892C68.2624 35.544 69.0184 35.37 69.8824 35.37ZM79.7763 45.108C78.9843 45.108 78.2283 45 77.5083 44.784C76.8003 44.568 76.2423 44.304 75.8343 43.992L76.5543 42.624C76.9623 42.9 77.4663 43.134 78.0663 43.326C78.6663 43.518 79.2783 43.614 79.9023 43.614C80.7063 43.614 81.2823 43.5 81.6303 43.272C81.9903 43.044 82.1703 42.726 82.1703 42.318C82.1703 42.018 82.0623 41.784 81.8463 41.616C81.6303 41.448 81.3423 41.322 80.9823 41.238C80.6343 41.154 80.2443 41.082 79.8123 41.022C79.3803 40.95 78.9483 40.866 78.5163 40.77C78.0843 40.662 77.6883 40.518 77.3283 40.338C76.9683 40.146 76.6803 39.888 76.4643 39.564C76.2483 39.228 76.1403 38.784 76.1403 38.232C76.1403 37.656 76.3023 37.152 76.6263 36.72C76.9503 36.288 77.4063 35.958 77.9943 35.73C78.5943 35.49 79.3023 35.37 80.1183 35.37C80.7423 35.37 81.3723 35.448 82.0083 35.604C82.6563 35.748 83.1843 35.958 83.5923 36.234L82.8543 37.602C82.4223 37.314 81.9723 37.116 81.5043 37.008C81.0363 36.9 80.5683 36.846 80.1003 36.846C79.3443 36.846 78.7803 36.972 78.4083 37.224C78.0363 37.464 77.8503 37.776 77.8503 38.16C77.8503 38.484 77.9583 38.736 78.1743 38.916C78.4023 39.084 78.6903 39.216 79.0383 39.312C79.3983 39.408 79.7943 39.492 80.2263 39.564C80.6583 39.624 81.0903 39.708 81.5223 39.816C81.9543 39.912 82.3443 40.05 82.6923 40.23C83.0523 40.41 83.3403 40.662 83.5563 40.986C83.7843 41.31 83.8983 41.742 83.8983 42.282C83.8983 42.858 83.7303 43.356 83.3943 43.776C83.0583 44.196 82.5843 44.526 81.9723 44.766C81.3603 44.994 80.6283 45.108 79.7763 45.108ZM91.9799 45V42.984L91.8899 42.606V39.168C91.8899 38.436 91.6739 37.872 91.2419 37.476C90.8219 37.068 90.1859 36.864 89.3339 36.864C88.7699 36.864 88.2179 36.96 87.6779 37.152C87.1379 37.332 86.6819 37.578 86.3099 37.89L85.5899 36.594C86.0819 36.198 86.6699 35.898 87.3539 35.694C88.0499 35.478 88.7759 35.37 89.5319 35.37C90.8399 35.37 91.8479 35.688 92.5559 36.324C93.2639 36.96 93.6179 37.932 93.6179 39.24V45H91.9799ZM88.8479 45.108C88.1399 45.108 87.5159 44.988 86.9759 44.748C86.4479 44.508 86.0399 44.178 85.7519 43.758C85.4639 43.326 85.3199 42.84 85.3199 42.3C85.3199 41.784 85.4399 41.316 85.6799 40.896C85.9319 40.476 86.3339 40.14 86.8859 39.888C87.4499 39.636 88.2059 39.51 89.1539 39.51H92.1779V40.752H89.2259C88.3619 40.752 87.7799 40.896 87.4799 41.184C87.1799 41.472 87.0299 41.82 87.0299 42.228C87.0299 42.696 87.2159 43.074 87.5879 43.362C87.9599 43.638 88.4759 43.776 89.1359 43.776C89.7839 43.776 90.3479 43.632 90.8279 43.344C91.3199 43.056 91.6739 42.636 91.8899 42.084L92.2319 43.272C92.0039 43.836 91.6019 44.286 91.0259 44.622C90.4499 44.946 89.7239 45.108 88.8479 45.108ZM100.974 45.108C100.002 45.108 99.1317 44.898 98.3637 44.478C97.6077 44.058 97.0137 43.482 96.5817 42.75C96.1497 42.018 95.9337 41.178 95.9337 40.23C95.9337 39.282 96.1497 38.442 96.5817 37.71C97.0137 36.978 97.6077 36.408 98.3637 36C99.1317 35.58 100.002 35.37 100.974 35.37C101.838 35.37 102.606 35.544 103.278 35.892C103.962 36.228 104.49 36.732 104.862 37.404L103.548 38.25C103.236 37.782 102.852 37.44 102.396 37.224C101.952 36.996 101.472 36.882 100.956 36.882C100.332 36.882 99.7737 37.02 99.2817 37.296C98.7897 37.572 98.3997 37.962 98.1117 38.466C97.8237 38.958 97.6797 39.546 97.6797 40.23C97.6797 40.914 97.8237 41.508 98.1117 42.012C98.3997 42.516 98.7897 42.906 99.2817 43.182C99.7737 43.458 100.332 43.596 100.956 43.596C101.472 43.596 101.952 43.488 102.396 43.272C102.852 43.044 103.236 42.696 103.548 42.228L104.862 43.056C104.49 43.716 103.962 44.226 103.278 44.586C102.606 44.934 101.838 45.108 100.974 45.108ZM110.498 45.108C109.538 45.108 108.794 44.85 108.266 44.334C107.738 43.818 107.474 43.08 107.474 42.12V33.372H109.202V42.048C109.202 42.564 109.328 42.96 109.58 43.236C109.844 43.512 110.216 43.65 110.696 43.65C111.236 43.65 111.686 43.5 112.046 43.2L112.586 44.442C112.322 44.67 112.004 44.838 111.632 44.946C111.272 45.054 110.894 45.108 110.498 45.108ZM105.854 36.882V35.46H111.938V36.882H105.854ZM114.675 45V35.46H116.403V45H114.675ZM115.539 33.624C115.203 33.624 114.921 33.516 114.693 33.3C114.477 33.084 114.369 32.82 114.369 32.508C114.369 32.184 114.477 31.914 114.693 31.698C114.921 31.482 115.203 31.374 115.539 31.374C115.875 31.374 116.151 31.482 116.367 31.698C116.595 31.902 116.709 32.16 116.709 32.472C116.709 32.796 116.601 33.072 116.385 33.3C116.169 33.516 115.887 33.624 115.539 33.624ZM123.788 45.108C122.828 45.108 121.976 44.898 121.232 44.478C120.488 44.058 119.9 43.482 119.468 42.75C119.036 42.006 118.82 41.166 118.82 40.23C118.82 39.282 119.036 38.442 119.468 37.71C119.9 36.978 120.488 36.408 121.232 36C121.976 35.58 122.828 35.37 123.788 35.37C124.736 35.37 125.582 35.58 126.326 36C127.082 36.408 127.67 36.978 128.09 37.71C128.522 38.43 128.738 39.27 128.738 40.23C128.738 41.178 128.522 42.018 128.09 42.75C127.67 43.482 127.082 44.058 126.326 44.478C125.582 44.898 124.736 45.108 123.788 45.108ZM123.788 43.596C124.4 43.596 124.946 43.458 125.426 43.182C125.918 42.906 126.302 42.516 126.578 42.012C126.854 41.496 126.992 40.902 126.992 40.23C126.992 39.546 126.854 38.958 126.578 38.466C126.302 37.962 125.918 37.572 125.426 37.296C124.946 37.02 124.4 36.882 123.788 36.882C123.176 36.882 122.63 37.02 122.15 37.296C121.67 37.572 121.286 37.962 120.998 38.466C120.71 38.958 120.566 39.546 120.566 40.23C120.566 40.902 120.71 41.496 120.998 42.012C121.286 42.516 121.67 42.906 122.15 43.182C122.63 43.458 123.176 43.596 123.788 43.596ZM136.222 35.37C137.002 35.37 137.686 35.52 138.274 35.82C138.874 36.12 139.342 36.576 139.678 37.188C140.014 37.8 140.182 38.574 140.182 39.51V45H138.454V39.708C138.454 38.784 138.226 38.088 137.77 37.62C137.326 37.152 136.696 36.918 135.88 36.918C135.268 36.918 134.734 37.038 134.278 37.278C133.822 37.518 133.468 37.872 133.216 38.34C132.976 38.808 132.856 39.39 132.856 40.086V45H131.128V35.46H132.784V38.034L132.514 37.35C132.826 36.726 133.306 36.24 133.954 35.892C134.602 35.544 135.358 35.37 136.222 35.37Z" fill="white"/>
<path d="M39.616 86V68.08L41.576 70.04H35.696V66.4H44.152V86H39.616ZM55.6768 86.336C54.0342 86.336 52.5968 86.0933 51.3648 85.608C50.1328 85.104 49.1715 84.404 48.4808 83.508C47.7902 82.5933 47.4448 81.5293 47.4448 80.316C47.4448 79.1027 47.7808 78.076 48.4528 77.236C49.1435 76.3773 50.1048 75.7333 51.3368 75.304C52.5688 74.856 54.0155 74.632 55.6768 74.632C57.3568 74.632 58.8128 74.856 60.0448 75.304C61.2955 75.7333 62.2568 76.3773 62.9288 77.236C63.6195 78.076 63.9648 79.1027 63.9648 80.316C63.9648 81.5293 63.6195 82.5933 62.9288 83.508C62.2382 84.404 61.2675 85.104 60.0168 85.608C58.7848 86.0933 57.3382 86.336 55.6768 86.336ZM55.6768 83.004C56.8155 83.004 57.7115 82.752 58.3648 82.248C59.0368 81.744 59.3728 81.0533 59.3728 80.176C59.3728 79.2987 59.0368 78.6173 58.3648 78.132C57.7115 77.628 56.8155 77.376 55.6768 77.376C54.5568 77.376 53.6702 77.628 53.0168 78.132C52.3635 78.6173 52.0368 79.2987 52.0368 80.176C52.0368 81.0533 52.3635 81.744 53.0168 82.248C53.6702 82.752 54.5568 83.004 55.6768 83.004ZM55.6768 76.928C54.1648 76.928 52.8395 76.7227 51.7008 76.312C50.5808 75.9013 49.7035 75.304 49.0688 74.52C48.4528 73.7173 48.1448 72.7653 48.1448 71.664C48.1448 70.5067 48.4622 69.5173 49.0968 68.696C49.7315 67.856 50.6182 67.212 51.7568 66.764C52.8955 66.2973 54.2022 66.064 55.6768 66.064C57.1888 66.064 58.5048 66.2973 59.6248 66.764C60.7635 67.212 61.6502 67.856 62.2848 68.696C62.9382 69.5173 63.2648 70.5067 63.2648 71.664C63.2648 72.7653 62.9475 73.7173 62.3128 74.52C61.6968 75.304 60.8195 75.9013 59.6808 76.312C58.5422 76.7227 57.2075 76.928 55.6768 76.928ZM55.6768 74.268C56.6288 74.268 57.3755 74.0533 57.9168 73.624C58.4768 73.1947 58.7568 72.6067 58.7568 71.86C58.7568 71.076 58.4675 70.4693 57.8888 70.04C57.3288 69.6107 56.5915 69.396 55.6768 69.396C54.7808 69.396 54.0528 69.6107 53.4928 70.04C52.9328 70.4693 52.6528 71.076 52.6528 71.86C52.6528 72.6067 52.9235 73.1947 53.4648 73.624C54.0062 74.0533 54.7435 74.268 55.6768 74.268ZM74.4412 86.336C72.8359 86.336 71.3986 85.944 70.1292 85.16C68.8599 84.3573 67.8612 83.2 67.1332 81.688C66.4052 80.176 66.0412 78.3467 66.0412 76.2C66.0412 74.0533 66.4052 72.224 67.1332 70.712C67.8612 69.2 68.8599 68.052 70.1292 67.268C71.3986 66.4653 72.8359 66.064 74.4412 66.064C76.0652 66.064 77.5026 66.4653 78.7532 67.268C80.0226 68.052 81.0212 69.2 81.7492 70.712C82.4772 72.224 82.8412 74.0533 82.8412 76.2C82.8412 78.3467 82.4772 80.176 81.7492 81.688C81.0212 83.2 80.0226 84.3573 78.7532 85.16C77.5026 85.944 76.0652 86.336 74.4412 86.336ZM74.4412 82.5C75.2066 82.5 75.8692 82.2853 76.4292 81.856C77.0079 81.4267 77.4559 80.7453 77.7732 79.812C78.1092 78.8787 78.2772 77.6747 78.2772 76.2C78.2772 74.7253 78.1092 73.5213 77.7732 72.588C77.4559 71.6547 77.0079 70.9733 76.4292 70.544C75.8692 70.1147 75.2066 69.9 74.4412 69.9C73.6946 69.9 73.0319 70.1147 72.4532 70.544C71.8932 70.9733 71.4452 71.6547 71.1092 72.588C70.7919 73.5213 70.6332 74.7253 70.6332 76.2C70.6332 77.6747 70.7919 78.8787 71.1092 79.812C71.4452 80.7453 71.8932 81.4267 72.4532 81.856C73.0319 82.2853 73.6946 82.5 74.4412 82.5ZM89.5811 82.92L89.6931 77.6L96.7211 70.936H101.929L95.1811 77.796L92.9131 79.644L89.5811 82.92ZM85.9691 86V65.224H90.3371V86H85.9691ZM97.1971 86L92.1011 79.672L94.8451 76.284L102.489 86H97.1971Z" fill="#F49F1C"/>
<path opacity="0.1" d="M287.1 51H189.9C186.863 51 184.5 53.5446 184.5 56.4286V121.571C184.5 124.625 186.863 127 189.9 127H287.1C289.969 127 292.5 124.625 292.5 121.571V56.4286C292.5 53.5446 289.969 51 287.1 51ZM214.2 101.214V103.929C214.2 104.777 213.525 105.286 212.85 105.286H210.15C209.306 105.286 208.8 104.777 208.8 103.929V101.214C206.775 101.214 204.919 100.536 203.4 99.3482C202.725 98.8393 202.725 97.8214 203.4 97.3125L205.256 95.4464C205.763 94.9375 206.438 94.9375 206.944 95.2768C207.619 95.6161 208.463 95.7857 209.138 95.7857H213.863C215.044 95.7857 215.888 94.9375 215.888 93.5804C215.888 92.5625 215.381 91.7143 214.369 91.5446L206.775 89.1696C203.738 88.1518 201.544 85.2679 201.544 81.875C201.544 77.6339 204.75 74.2411 208.631 74.2411V71.3571C208.631 70.6786 209.306 70 209.981 70H212.681C213.525 70 214.031 70.6786 214.031 71.3571V74.2411C216.056 74.2411 217.913 74.9196 219.431 76.1071C220.106 76.6161 220.106 77.6339 219.431 78.1429L217.575 80.0089C217.069 80.5179 216.394 80.5179 215.888 80.1786C215.213 79.8393 214.369 79.5 213.694 79.5H208.969C207.788 79.5 206.944 80.5179 206.944 81.875C206.944 82.8929 207.45 83.7411 208.463 83.9107L216.056 86.2857C219.094 87.1339 221.288 90.1875 221.288 93.5804C221.288 97.8214 218.081 101.214 214.2 101.214ZM254.7 98.5C254.7 99.3482 254.025 99.8571 253.35 99.8571H234.45C233.606 99.8571 233.1 99.3482 233.1 98.5V95.7857C233.1 95.1071 233.606 94.4286 234.45 94.4286H253.35C254.025 94.4286 254.7 95.1071 254.7 95.7857V98.5ZM281.7 98.5C281.7 99.3482 281.025 99.8571 280.35 99.8571H266.85C266.006 99.8571 265.5 99.3482 265.5 98.5V95.7857C265.5 95.1071 266.006 94.4286 266.85 94.4286H280.35C281.025 94.4286 281.7 95.1071 281.7 95.7857V98.5ZM281.7 82.2143C281.7 83.0625 281.025 83.5714 280.35 83.5714H234.45C233.606 83.5714 233.1 83.0625 233.1 82.2143V79.5C233.1 78.8214 233.606 78.1429 234.45 78.1429H280.35C281.025 78.1429 281.7 78.8214 281.7 79.5V82.2143Z" fill="white"/>
</g>
<rect x="12" y="11.5" width="254" height="99" rx="14.5" stroke="url(#paint0_linear_17_6698)" stroke-opacity="0.3" shape-rendering="crispEdges"/>
</g>
<defs>
<filter id="filter0_d_17_6698" x="0.5" y="0" width="285" height="130" filterUnits="userSpaceOnUse" color-interpolation-filters="sRGB">
<feFlood flood-opacity="0" result="BackgroundImageFix"/>
<feColorMatrix in="SourceAlpha" type="matrix" values="0 0 0 0 0 0 0 0 0 0 0 0 0 0 0 0 0 0 127 0" result="hardAlpha"/>
<feOffset dx="4" dy="4"/>
<feGaussianBlur stdDeviation="7.5"/>
<feComposite in2="hardAlpha" operator="out"/>
<feColorMatrix type="matrix" values="0 0 0 0 0 0 0 0 0 0 0 0 0 0 0 0 0 0 0.1 0"/>
<feBlend mode="normal" in2="BackgroundImageFix" result="effect1_dropShadow_17_6698"/>
<feBlend mode="normal" in="SourceGraphic" in2="effect1_dropShadow_17_6698" result="shape"/>
</filter>
<linearGradient id="paint0_linear_17_6698" x1="-19.4305" y1="-9.33731" x2="51.9922" y2="167.54" gradientUnits="userSpaceOnUse">
<stop stop-color="white"/>
<stop offset="1" stop-color="white" stop-opacity="0"/>
</linearGradient>
<clipPath id="clip0_17_6698">
<rect x="11.5" y="11" width="255" height="100" rx="15" fill="white"/>
</clipPath>
</defs>
</svg>
