<svg viewBox="0 0 216 48" fill="none" xmlns="http://www.w3.org/2000/svg">
<g clip-path="url(#clip0_40_6646)">
<path d="M14.0629 9.77778C14.2727 9.65076 14.4361 9.46438 14.5305 9.24445C14.8471 8.68138 15.2146 8.146 15.6288 7.64445C14.103 8.04962 12.6289 8.61606 11.2336 9.33334C11.9424 9.49156 12.6474 9.64622 13.3468 9.78311C13.5799 9.85528 13.831 9.85341 14.0629 9.77778Z" fill="#F49F1C"/>
<path d="M26.5155 7.54489C26.1742 7.568 25.8328 7.59645 25.4933 7.64622C23.3226 7.95911 21.0833 9.10756 20.369 11.0969C24.6918 11.2533 28.2001 14.3449 31.2836 17.2444L36.2112 21.888C36.6453 22.2969 37.1166 22.8018 37.0294 23.3796C36.9609 23.6726 36.8203 23.9456 36.6193 24.176L34.137 27.5324C33.868 27.888 33.5804 28.2738 33.1611 28.4676C32.7103 28.6773 32.1852 28.6453 31.6862 28.5991C29.3893 28.4213 26.9812 28.2987 24.8792 29.2C22.1167 30.3858 20.3319 33.3991 20.7234 36.2738C21.1148 39.1484 23.6733 41.632 26.6714 42.0124C28.202 42.2044 29.7548 41.8987 31.2224 41.44C35.2674 40.1692 38.829 37.7789 41.4579 34.5707C42.5054 31.8639 42.9443 28.9757 42.7458 26.0951C42.5473 23.2145 41.7159 20.4066 40.306 17.8554C38.8961 15.3041 36.9396 13.0671 34.5647 11.2909C32.1897 9.5147 29.45 8.23936 26.5248 7.54845L26.5155 7.54489Z" fill="#F49F1C"/>
<path d="M41.4579 34.5493C38.8295 37.7667 35.2642 40.1647 31.2131 41.44C29.7456 41.8987 28.1927 42.2044 26.6621 42.0124C23.664 41.632 21.1056 39.1484 20.7141 36.2738C20.3227 33.3991 22.1074 30.3858 24.8699 29.2C26.972 28.2987 29.3801 28.4142 31.6769 28.5991C32.176 28.6382 32.701 28.6773 33.1519 28.4676C33.5712 28.2738 33.8587 27.8969 34.1277 27.5324L36.6194 24.1778C36.8204 23.9474 36.961 23.6743 37.0294 23.3813C37.1166 22.8036 36.6453 22.2987 36.2112 21.8898L31.2836 17.2444C28.2001 14.3449 24.6918 11.2533 20.369 11.0969C21.0833 9.10755 23.3226 7.95911 25.4933 7.64622C27.664 7.33333 29.8773 7.65689 32.074 7.61244C34.2706 7.568 36.6249 7.05955 38.0665 5.47911C39.508 3.89867 39.4524 1.00444 37.5099 0.0071106C38.1889 1.24089 37.3244 2.85155 36.035 3.49511C34.7455 4.13867 33.202 4.06755 31.7678 3.88444C29.3449 3.57689 26.9293 3.00978 24.4896 3.14844C22.4304 3.28696 20.4402 3.91739 18.7006 4.98221C16.961 6.04704 15.5274 7.51235 14.5305 9.24444C14.4361 9.46437 14.2728 9.65075 14.063 9.77778C13.8317 9.85546 13.5802 9.85859 13.3468 9.78666C10.0871 9.14489 6.70311 8.16 3.39516 7.856C2.85714 9.27822 3.99813 11.8809 4.65118 13.1893C4.78476 13.4542 4.92947 13.7369 4.89608 14.0302C4.83238 14.3142 4.6879 14.5757 4.47864 14.7858C-0.599236 20.9884 -1.45823 30.0924 2.39517 37.0631C6.24857 44.0338 14.5713 48.4853 22.7809 47.9573C30.9905 47.4293 38.6175 41.9556 41.4579 34.5493Z" fill="#030E4F"/>
<path d="M39.4301 9.18222C39.3763 9.22666 39.3522 9.23911 39.3411 9.25866C38.1277 11.6533 34.7029 13.2 31.8569 13.2053C31.8105 13.2053 31.7604 13.2053 31.7103 13.2053C31.5081 13.2053 31.3077 13.1911 31.1129 13.1716C29.484 12.9636 27.2595 11.9111 27.2595 11.9111L29.0925 13.5502L31.4135 15.6249C32.432 16.5333 32.4376 16.544 33.766 16.1778C36.304 15.4667 38.2186 14.0676 39.1314 11.6089C39.4245 10.8328 39.5267 10.0024 39.4301 9.18222Z" fill="#030E4F"/>
<path d="M20.729 15.7422L21.8811 15.5467L22.5936 16.4373L23.9331 17.9662L21.8681 18.224L20.7142 18.4196L20.0036 17.5289L18.6622 16L20.729 15.7422Z" fill="white"/>
<path d="M10.0926 40.3893C8.03995 39.1346 6.31419 37.4463 5.0475 35.4538C3.78081 33.4613 3.0068 31.2175 2.78475 28.8941C2.56271 26.5708 2.89851 24.2296 3.76644 22.0497C4.63437 19.8699 6.01141 17.9094 7.79209 16.3182C4.97968 19.8849 3.65685 24.3286 4.08231 28.7803C4.50777 33.232 6.65092 37.3715 10.0926 40.3893Z" fill="white"/>
<path d="M11.4786 36.6311C10.0661 35.7687 8.87845 34.6078 8.00657 33.2375C7.1347 31.8672 6.60178 30.3238 6.44866 28.7256C6.29554 27.1274 6.52628 25.5169 7.1232 24.0173C7.72012 22.5178 8.66737 21.1691 9.89236 20.0747C7.95886 22.5285 7.04994 25.5851 7.34329 28.6469C7.63665 31.7088 9.11118 34.5557 11.4786 36.6311Z" fill="white"/>
<path d="M12.5212 33.2569C11.6838 32.7467 10.9796 32.0593 10.4626 31.2476C9.9457 30.436 9.62976 29.5216 9.53911 28.5746C9.44846 27.6277 9.58551 26.6735 9.93972 25.7853C10.2939 24.897 10.8559 24.0984 11.5824 23.4507C10.4375 24.9041 9.89917 26.7143 10.0728 28.5277C10.2464 30.3411 11.1194 32.0274 12.5212 33.2569Z" fill="white"/>
<path d="M85.9083 29.4009C83.463 29.4009 82.6746 28.5938 82.6746 26.1707V13.904C82.6746 11.4827 83.463 10.704 85.9083 10.704H90.2033C92.6485 10.704 93.437 11.4844 93.437 13.904V17.0044L89.7413 17.2373V14.0107C89.7413 13.6551 89.604 13.5413 89.2515 13.5413H86.8879C86.5076 13.5413 86.3703 13.6462 86.3703 14.0107V26.0996C86.3703 26.4551 86.5076 26.5671 86.8879 26.5671H89.2515C89.604 26.5671 89.7413 26.4622 89.7413 26.0996V22.7396L93.437 22.9742V26.1742C93.437 28.5973 92.6485 29.4044 90.2033 29.4044L85.9083 29.4009Z" fill="#F49F1C"/>
<path d="M100.068 29.4009C97.5668 29.4009 96.834 28.5671 96.834 26.1707V13.904C96.834 11.536 97.5761 10.704 100.068 10.704H104.932C107.405 10.704 108.138 11.5378 108.138 13.904V26.1707C108.138 28.5671 107.405 29.4009 104.932 29.4009H100.068ZM103.953 26.5564C104.253 26.5564 104.442 26.5049 104.442 26.0889V14C104.442 13.584 104.257 13.5307 103.953 13.5307H101.045C100.721 13.5307 100.53 13.584 100.53 14V26.0889C100.53 26.5049 100.715 26.5564 101.045 26.5564H103.953Z" fill="#F49F1C"/>
<path d="M111.808 29.296V10.8071H115.531V29.296H111.808Z" fill="#F49F1C"/>
<path d="M119.335 29.296V10.8071H124.771L128.11 26.4516V10.8071H131.29V29.296H125.83L122.515 13.6516V29.296H119.335Z" fill="#F49F1C"/>
<path d="M52.1294 29.296V10.8071H57.6451L59.8714 26.0409L62.0978 10.8071H67.5875V29.296H64.3575V13.4116L61.749 29.296H57.9976L55.3891 13.4116V29.296H52.1294Z" fill="white"/>
<path d="M73.5504 29.296V22.896L69.8398 10.8071H73.2109L75.3648 19.1111L77.5114 10.8036H80.9084L77.2127 22.8924V29.2924L73.5504 29.296Z" fill="white"/>
<path d="M138.195 29.4009C135.75 29.4009 134.962 28.5938 134.962 26.1707V13.904C134.962 11.4827 135.75 10.704 138.195 10.704H142.489C144.934 10.704 145.722 11.4844 145.722 13.904V17.0044L142.027 17.2373V14.0107C142.027 13.6551 141.891 13.5413 141.539 13.5413H139.173C138.793 13.5413 138.657 13.6462 138.657 14.0107V26.0996C138.657 26.4551 138.793 26.5671 139.173 26.5671H141.539C141.891 26.5671 142.027 26.4622 142.027 26.0996V22.7396L145.72 22.9689V26.1689C145.72 28.592 144.932 29.3991 142.487 29.3991L138.195 29.4009Z" fill="white"/>
<path d="M149.257 29.296V10.8071H152.98V18.5671H156.62V10.8071H160.344V29.296H156.62V21.3547H152.98V29.296H149.257Z" fill="white"/>
<path d="M171.138 29.296L170.65 25.7813H167.056L166.594 29.296H162.763L165.642 10.8071H172.065L174.974 29.296H171.138ZM167.36 23.568H170.349L168.85 12.6044L167.36 23.568Z" fill="white"/>
<path d="M177.384 29.296V10.8071H182.826L186.165 26.4516V10.8071H189.343V29.296H183.882L180.566 13.6516V29.296H177.384Z" fill="white"/>
<path d="M196.243 29.296C193.798 29.296 193.01 28.5404 193.01 26.1707V13.904C193.01 11.5093 193.798 10.704 196.243 10.704H200.618C203.03 10.704 203.826 11.5111 203.826 13.904V16.1191L200.13 16.352V13.984C200.13 13.6462 199.993 13.5164 199.64 13.5164H197.228C196.846 13.5164 196.711 13.6462 196.711 13.984V25.9893C196.711 26.3538 196.846 26.4569 197.228 26.4569H200.08L199.265 29.3013L196.243 29.296ZM200.102 29.296V22.1084H198.907V19.5058H203.826V29.296H200.102Z" fill="white"/>
<path d="M207.468 29.296V10.8071H215.946V13.6196H211.191V26.4569H216V29.3013L207.468 29.296ZM211.978 21.4062L211.217 18.5938H215.729V21.4062H211.978Z" fill="white"/>
<path d="M52.1294 35.4009C52.1294 33.5378 53.2314 32.3787 54.9642 32.3787C56.3798 32.3787 57.4559 33.2249 57.5913 34.48H56.519C56.4561 34.132 56.2641 33.8175 55.9785 33.5944C55.6928 33.3713 55.3326 33.2546 54.9642 33.2658C53.916 33.2658 53.2444 34.0924 53.2444 35.3991C53.2444 36.7058 53.9123 37.5324 54.968 37.5324C55.775 37.5324 56.3538 37.1164 56.5227 36.4107H57.595C57.4095 37.6551 56.4076 38.4196 54.968 38.4196C53.224 38.4213 52.1294 37.2764 52.1294 35.4009Z" fill="#F49F1C"/>
<path d="M61.2369 38.3236H60.146V32.4818H62.5671C63.8862 32.4818 64.6766 33.1822 64.6766 34.3004C64.6766 35.0738 64.2536 35.7227 63.5263 35.968L64.8584 38.3236H63.6154L62.4187 36.1262H61.2406L61.2369 38.3236ZM61.2369 35.3244H62.4669C63.159 35.3244 63.5597 34.9564 63.5597 34.3236C63.5597 33.6907 63.133 33.328 62.4465 33.328H61.2388L61.2369 35.3244Z" fill="#F49F1C"/>
<path d="M68.9122 38.3236V36.0213L66.7749 32.4818H67.9845L69.4688 35.024H69.4929L70.9678 32.4818H72.1552L70.0068 36.0213V38.3236H68.9122Z" fill="#F49F1C"/>
<path d="M76.8898 32.4818C78.1032 32.4818 78.9436 33.2711 78.9436 34.4373C78.9436 35.6036 78.0772 36.3929 76.8434 36.3929H75.6097V38.3236H74.5206V32.4818H76.8898ZM75.6097 35.5502H76.5985C77.3815 35.5502 77.836 35.1467 77.836 34.4373C77.836 33.728 77.3907 33.3333 76.6097 33.3333H75.6152L75.6097 35.5502Z" fill="#F49F1C"/>
<path d="M82.9658 38.3236V33.3653H81.1403V32.4764H85.8731V33.3653H84.0512V38.3236H82.9658Z" fill="#F49F1C"/>
<path d="M93.5688 35.4044C93.5688 37.264 92.4556 38.4267 90.6801 38.4267C88.9046 38.4267 87.7859 37.2693 87.7859 35.4044C87.7859 33.5396 88.899 32.3822 90.6801 32.3822C92.4612 32.3822 93.5688 33.5467 93.5688 35.4044ZM88.9009 35.4044C88.9009 36.704 89.5892 37.5378 90.6801 37.5378C91.771 37.5378 92.4575 36.7111 92.4575 35.4044C92.4575 34.0978 91.7654 33.2711 90.6801 33.2711C89.5948 33.2711 88.9009 34.1013 88.9009 35.4044Z" fill="#F49F1C"/>
<path d="M95.9584 35.4009C95.9584 33.5378 97.0715 32.3787 98.7951 32.3787C100.211 32.3787 101.287 33.2249 101.422 34.48H100.35C100.287 34.132 100.095 33.8175 99.8093 33.5944C99.5236 33.3713 99.1634 33.2546 98.7951 33.2658C97.7469 33.2658 97.0752 34.0924 97.0752 35.3991C97.0752 36.7058 97.7431 37.5324 98.7988 37.5324C99.6058 37.5324 100.185 37.1164 100.354 36.4107H101.422C101.237 37.6551 100.235 38.4196 98.7951 38.4196C97.053 38.4213 95.9584 37.2764 95.9584 35.4009Z" fill="#F49F1C"/>
<path d="M105.068 36.1778C105.068 36.9742 105.578 37.5182 106.481 37.5182C107.385 37.5182 107.903 36.9742 107.903 36.1778V32.4818H108.986V36.2631C108.986 37.5396 108.027 38.4213 106.48 38.4213C104.932 38.4213 103.975 37.5324 103.975 36.2631V32.4818H105.066L105.068 36.1778Z" fill="#F49F1C"/>
<path d="M112.882 38.3236H111.793V32.4818H114.218C115.535 32.4818 116.326 33.1822 116.326 34.3004C116.326 35.0738 115.903 35.7227 115.177 35.968L116.507 38.3236H115.264L114.066 36.1262H112.882V38.3236ZM112.882 35.3244H114.112C114.804 35.3244 115.207 34.9564 115.207 34.3236C115.207 33.6907 114.78 33.328 114.094 33.328H112.882V35.3244Z" fill="#F49F1C"/>
<path d="M120.025 38.3236H118.934V32.4818H121.346C122.665 32.4818 123.455 33.1822 123.455 34.3004C123.455 35.0738 123.032 35.7227 122.305 35.968L123.643 38.3236H122.4L121.199 36.1262H120.025V38.3236ZM120.025 35.3244H121.255C121.947 35.3244 122.35 34.9564 122.35 34.3236C122.35 33.6907 121.923 33.328 121.236 33.328H120.025V35.3244Z" fill="#F49F1C"/>
<path d="M130.019 38.3236H126.073V32.4818H130.019V33.3707H127.168V34.9493H129.867V35.7796H127.168V37.4471H130.023L130.019 38.3236Z" fill="#F49F1C"/>
<path d="M132.696 38.3236V32.4818H133.644L136.669 36.5707H136.708V32.4818H137.754V38.3236H136.826L133.797 34.2347H133.758V38.3236H132.696Z" fill="#F49F1C"/>
<path d="M140.355 35.4009C140.355 33.5378 141.459 32.3787 143.19 32.3787C144.605 32.3787 145.683 33.2249 145.819 34.48H144.746C144.683 34.1319 144.491 33.8174 144.205 33.5943C143.919 33.3712 143.558 33.2545 143.19 33.2658C142.143 33.2658 141.472 34.0924 141.472 35.3991C141.472 36.7058 142.138 37.5324 143.195 37.5324C144.002 37.5324 144.581 37.1164 144.75 36.4107H145.819C145.633 37.6551 144.631 38.4196 143.19 38.4196C141.453 38.4213 140.355 37.2764 140.355 35.4009Z" fill="#F49F1C"/>
<path d="M149.835 38.3236V36.0213L147.698 32.4818H148.893L150.377 35.024H150.403L151.878 32.4818H153.065L150.915 36.0213V38.3236H149.835Z" fill="#F49F1C"/>
<path d="M162.85 38.3236H158.904V32.4818H162.85V33.3707H159.993V34.9493H162.693V35.7796H159.993V37.4471H162.85V38.3236Z" fill="#F49F1C"/>
<path d="M167.162 35.3973V35.3689L165.201 32.4818H166.488L167.9 34.6756H167.934L169.362 32.4818H170.581L168.54 35.3938V35.4204L170.538 38.3236H169.282L167.85 36.1778H167.817L166.364 38.3236H165.177L167.162 35.3973Z" fill="#F49F1C"/>
<path d="M172.485 35.4009C172.485 33.5378 173.587 32.3787 175.319 32.3787C176.735 32.3787 177.811 33.2249 177.947 34.48H176.874C176.811 34.132 176.619 33.8175 176.334 33.5944C176.048 33.3713 175.688 33.2546 175.319 33.2658C174.271 33.2658 173.6 34.0924 173.6 35.3991C173.6 36.7058 174.268 37.5324 175.323 37.5324C176.13 37.5324 176.709 37.1164 176.878 36.4107H177.947C177.761 37.6551 176.759 38.4196 175.319 38.4196C173.577 38.4213 172.485 37.2764 172.485 35.4009Z" fill="#F49F1C"/>
<path d="M184.559 38.3236V35.7902H181.59V38.3236H180.499V32.4818H181.59V34.912H184.559V32.4818H185.644V38.3236H184.559Z" fill="#F49F1C"/>
<path d="M191.917 36.8142H189.672L189.152 38.3236H188.021L190.184 32.4818H191.414L193.586 38.3236H192.438L191.917 36.8142ZM189.926 36.0089H191.659L190.804 33.5111H190.774L189.926 36.0089Z" fill="#F49F1C"/>
<path d="M195.963 38.3236V32.4818H196.909L199.933 36.5707H199.972V32.4818H201.02V38.3236H200.08L197.05 34.2347H197.013V38.3236H195.963Z" fill="#F49F1C"/>
<path d="M206.507 38.4213C204.727 38.4213 203.622 37.264 203.622 35.3813C203.622 33.5271 204.724 32.384 206.486 32.384C207.872 32.384 208.92 33.1698 209.119 34.3396H208.006C207.916 34.0225 207.717 33.744 207.441 33.55C207.164 33.3561 206.827 33.2584 206.484 33.2729C205.386 33.2729 204.731 34.0551 204.731 35.3707C204.731 36.7147 205.416 37.536 206.514 37.536C207.442 37.536 208.072 36.9778 208.089 36.16V36.0622H206.618V35.2658H209.171V35.888C209.171 37.4702 208.176 38.4213 206.507 38.4213Z" fill="#F49F1C"/>
<path d="M215.729 38.3236H211.783V32.4818H215.729V33.3707H212.881V34.9493H215.581V35.7796H212.881V37.4471H215.738L215.729 38.3236Z" fill="#F49F1C"/>
</g>
<defs>
<clipPath id="clip0_40_6646">
<rect width="216" height="48" fill="white"/>
</clipPath>
</defs>
</svg>
