<svg width="180" height="36" viewBox="0 0 180 36" fill="none" xmlns="http://www.w3.org/2000/svg">
<g clip-path="url(#clip0_41_7346)">
<path d="M11.4486 15.1268L18.4017 8.13775L25.3576 15.1325L29.4011 11.0636L18.4017 0L7.40222 11.0607L11.4486 15.1268Z" fill="white"/>
<path d="M0.498535 18.0005L4.54339 13.9331L8.58824 18.0005L4.54339 22.0679L0.498535 18.0005Z" fill="white"/>
<path d="M11.4485 20.8732L18.4016 27.8651L25.3576 20.8704L29.4039 24.9335L29.4011 24.9364L18.4016 36L7.40214 24.9421L7.39648 24.9364L11.4485 20.8732Z" fill="white"/>
<path d="M28.2083 18.0017L32.2531 13.9343L36.298 18.0017L32.2531 22.0691L28.2083 18.0017Z" fill="white"/>
<path d="M22.5045 17.9985L18.4016 13.8699L15.3676 16.9208L15.017 17.2706L14.2987 17.9928L14.2931 17.9985L14.2987 18.007L18.4016 22.1299L22.5045 18.0013L22.5073 17.9985H22.5045Z" fill="white"/>
<path d="M42.609 8.72363H51.4086C53.5915 8.72363 55.2428 9.29231 56.3626 10.4297C56.7844 10.8498 57.117 11.3517 57.3401 11.905C57.5632 12.4583 57.6722 13.0514 57.6605 13.6484V13.7024C57.668 14.1914 57.6003 14.6786 57.4597 15.1468C57.3344 15.5499 57.1526 15.9328 56.9196 16.2842C56.7025 16.6155 56.4397 16.9142 56.1392 17.1713C55.8456 17.4254 55.524 17.6449 55.1806 17.8253C56.1707 18.1721 57.0611 18.7579 57.7736 19.5313C58.4032 20.2516 58.718 21.2468 58.718 22.5169V22.5709C58.7359 23.3641 58.5643 24.15 58.2175 24.8626C57.8815 25.5193 57.389 26.082 56.7839 26.5004C56.0998 26.9616 55.3381 27.294 54.5359 27.4814C53.5828 27.7087 52.6058 27.8185 51.6263 27.8084H42.609V8.72363ZM50.5264 16.4406C51.2877 16.4776 52.0453 16.3128 52.7234 15.9629C52.9879 15.8075 53.2038 15.5809 53.3467 15.3085C53.4896 15.0361 53.5539 14.7289 53.5321 14.4218V14.3677C53.5461 14.0847 53.489 13.8027 53.3659 13.5477C53.2428 13.2928 53.0579 13.0731 52.828 12.9091C52.3587 12.5736 51.681 12.4058 50.795 12.4058H46.678V16.4406H50.5264ZM51.6376 24.1319C52.3961 24.1746 53.1511 24.0001 53.8149 23.6286C54.0735 23.4615 54.2828 23.2278 54.4211 22.9518C54.5593 22.6757 54.6214 22.3675 54.601 22.0591V22.005C54.6112 21.7119 54.5497 21.4208 54.422 21.157C54.2944 20.8933 54.1043 20.6651 53.8686 20.4924C53.3823 20.1133 52.5962 19.9237 51.5104 19.9237H46.678V24.1319H51.6376Z" fill="white"/>
<path d="M63.9604 8.72363H68.1368V27.8141H63.9604V8.72363Z" fill="white"/>
<path d="M74.4565 8.72363H78.3078L87.2091 20.4725V8.72363H91.3318V27.8141H87.7775L78.5849 15.6785V27.8141H74.4565V8.72363Z" fill="white"/>
<path d="M103.977 8.58716H107.823L115.958 27.8141H111.597L109.861 23.5319H101.834L100.098 27.8141H95.8391L103.977 8.58716ZM108.371 19.8242L105.843 13.6313L103.327 19.8242H108.371Z" fill="white"/>
<path d="M120.473 8.72363H124.325L133.22 20.4725V8.72363H137.343V27.8141H133.789L124.596 15.6785V27.8141H120.473V8.72363Z" fill="white"/>
<path d="M152.375 28.1495C151.044 28.161 149.724 27.9018 148.495 27.3875C147.338 26.9071 146.289 26.1988 145.408 25.3041C144.528 24.4095 143.834 23.3467 143.369 22.1784C142.877 20.9564 142.629 19.6495 142.636 18.3313V18.2773C142.614 15.6791 143.609 13.1763 145.405 11.3082C146.288 10.3957 147.346 9.67224 148.515 9.18135C149.786 8.6518 151.151 8.38771 152.527 8.4051C153.341 8.399 154.154 8.47232 154.953 8.62404C155.638 8.75417 156.307 8.95523 156.95 9.224C157.533 9.47098 158.088 9.78184 158.604 10.1509C159.107 10.5109 159.58 10.9123 160.018 11.3508L157.363 14.4331C156.684 13.8036 155.923 13.2708 155.101 12.8493C154.293 12.4608 153.406 12.2661 152.51 12.2806C151.765 12.2726 151.027 12.4242 150.344 12.7252C149.662 13.0262 149.051 13.4698 148.552 14.0265C148.057 14.5817 147.67 15.2249 147.409 15.923C147.137 16.6607 147 17.442 147.005 18.229V18.283C147.002 19.0688 147.139 19.8488 147.409 20.5861C147.666 21.2867 148.05 21.9335 148.54 22.494C149.035 23.0576 149.645 23.5077 150.328 23.8139C151.011 24.12 151.751 24.2749 152.499 24.2683C153.451 24.2985 154.396 24.0924 155.25 23.6684C156.064 23.2227 156.816 22.6721 157.487 22.0306L160.145 24.7318C159.676 25.244 159.168 25.7193 158.627 26.1535C158.095 26.5764 157.517 26.9379 156.905 27.2311C156.252 27.54 155.565 27.7682 154.857 27.9107C154.04 28.0754 153.208 28.1555 152.375 28.1495Z" fill="white"/>
<path d="M165.073 8.72363H179.361V12.4598H169.182V16.3325H178.146V20.0687H169.196V24.0779H179.503V27.8141H165.082L165.073 8.72363Z" fill="white"/>
</g>
<defs>
<clipPath id="clip0_41_7346">
<rect width="179" height="36" fill="white" transform="translate(0.5)"/>
</clipPath>
</defs>
</svg>
