<svg width="134" height="36" viewBox="0 0 134 36" fill="none" xmlns="http://www.w3.org/2000/svg">
<g clip-path="url(#clip0_41_7321)">
<path d="M40.6381 27.3553V1.69272H42.4142V25.6625H54.577V27.3553H40.6381ZM63.3608 27.7105C60.6063 27.7105 58.4763 26.8189 56.8805 25.1262C55.3749 23.4334 54.57 21.0302 54.57 17.9094C54.57 14.8793 55.2777 12.3854 56.7903 10.6022C58.2959 8.72833 60.2525 7.83669 62.8265 7.83669C65.0468 7.83669 66.823 8.63777 68.1551 10.1563C69.4872 11.7585 70.1047 13.8971 70.1047 16.572V18H56.3462C56.3462 20.5844 56.9707 22.6324 58.2126 23.9698C59.3644 25.3978 61.1405 26.0178 63.3608 26.0178C64.4223 26.0178 65.4006 25.9272 66.1985 25.7531C66.9964 25.572 68.0649 25.3073 69.3068 24.7709V26.4636C68.2453 26.9094 67.267 27.2647 66.3789 27.4458C65.3867 27.6269 64.3738 27.7175 63.3608 27.7105ZM62.8265 9.44582C60.9601 9.44582 59.5448 10.0728 58.3861 11.2291C57.3245 12.476 56.6099 14.1687 56.4364 16.4884H68.1551C68.1551 14.2593 67.7111 12.5666 66.7328 11.3197C65.8447 10.0658 64.5125 9.44582 62.8265 9.44582ZM79.3395 7.92724C80.6717 7.92724 81.9136 8.19195 82.8919 8.63777C83.8702 9.17415 84.7583 9.97523 85.5562 11.2221H85.6464C85.5562 9.71053 85.5562 8.28251 85.5562 6.85449V0H87.2422V27.3553H86.0904L85.6464 24.4156C84.2241 26.5542 82.094 27.7105 79.4297 27.7105C76.7655 27.7105 74.8158 26.9094 73.3935 25.2167C71.9711 23.6146 71.3536 21.2043 71.3536 18.0906C71.3536 14.7957 72.0613 12.2949 73.3935 10.5186C74.7256 8.73529 76.7654 7.92724 79.3395 7.92724ZM79.3395 9.44582C77.2997 9.44582 75.7039 10.1563 74.6354 11.6749C73.5739 13.1029 73.0396 15.2415 73.0396 18.0906C73.0396 23.524 75.1697 26.1989 79.3395 26.1989C81.4696 26.1989 83.0654 25.572 84.0437 24.3251C85.0219 23.0782 85.5493 21.0302 85.5493 18.0836V17.8189C85.5493 14.8793 85.015 12.7407 84.0437 11.4938C83.1556 10.0658 81.5598 9.44582 79.3395 9.44582ZM105.698 8.28947V9.53638L101.792 9.80108C102.853 11.1385 103.387 12.5666 103.387 14.0782C103.387 15.952 102.763 17.3731 101.521 18.5364C100.279 19.6927 98.6833 20.2291 96.6366 20.2291C95.7485 20.2291 95.131 20.2291 94.8604 20.1385C94.1527 20.4938 93.6184 20.9396 93.2646 21.3854C92.9107 21.9218 92.7303 22.3676 92.7303 22.9876C92.7303 23.6076 92.994 24.0534 93.438 24.3251C93.8821 24.5898 94.68 24.7709 95.7485 24.7709H99.0302C101.07 24.7709 102.666 25.2167 103.734 26.0178C104.803 26.8189 105.42 28.0658 105.42 29.7585C105.42 31.8065 104.622 33.3251 103.027 34.3909C101.431 35.4567 99.1204 35.993 96.1023 35.993C93.7086 35.993 91.8422 35.5472 90.5101 34.565C89.178 33.6734 88.5604 32.3359 88.5604 30.7337C88.5604 29.3963 89.0045 28.3305 89.8024 27.4389C90.6003 26.5472 91.752 26.0108 93.0842 25.6556C92.5499 25.3909 92.0226 25.0286 91.752 24.5898C91.4051 24.1579 91.2178 23.6285 91.2178 23.0782C91.2178 21.8313 92.0157 20.6749 93.6115 19.6927C92.5499 19.2469 91.6618 18.5364 91.0374 17.5542C90.413 16.572 90.1493 15.4156 90.1493 14.1687C90.1493 12.2949 90.7737 10.6927 91.9255 9.53638C93.1674 8.38003 94.7632 7.84365 96.81 7.84365C98.052 7.84365 99.0302 7.93421 99.7379 8.19892H105.684V8.28947H105.698ZM90.2534 30.5666C90.2534 33.1509 92.203 34.4884 96.1092 34.4884C101.077 34.4884 103.568 32.8862 103.568 29.6749C103.568 28.5186 103.214 27.7175 102.416 27.1811C101.618 26.6447 100.376 26.38 98.6001 26.38H95.4917C92.0296 26.4636 90.2534 27.8011 90.2534 30.5666ZM91.7659 14.1687C91.7659 15.6803 92.21 16.7531 93.0981 17.6447C93.9862 18.4458 95.1379 18.8916 96.6504 18.8916C98.2462 18.8916 99.4882 18.4458 100.286 17.6447C101.174 16.8437 101.528 15.6873 101.528 14.1687C101.528 12.5666 101.084 11.3197 100.196 10.5186C99.3078 9.71749 98.156 9.27167 96.5602 9.27167C95.0546 9.27167 93.8058 9.71749 93.0079 10.6091C92.1198 11.4033 91.7659 12.6502 91.7659 14.1687Z" fill="white"/>
<path d="M114.308 27.7105C111.554 27.7105 109.424 26.8188 107.828 25.1261C106.322 23.4334 105.518 21.0301 105.518 17.9094C105.518 14.8792 106.225 12.3854 107.738 10.6021C109.243 8.72829 111.2 7.83665 113.774 7.83665C115.994 7.83665 117.77 8.63773 119.103 10.1563C120.435 11.7585 121.052 13.897 121.052 16.5719V18H107.384C107.384 20.5843 108.008 22.6323 109.25 23.9698C110.402 25.3978 112.178 26.0178 114.398 26.0178C115.46 26.0178 116.438 25.9272 117.236 25.7531C118.034 25.5719 119.103 25.3072 120.345 24.7709V26.4636C119.283 26.9094 118.305 27.2647 117.417 27.4458C116.438 27.6269 115.46 27.7105 114.308 27.7105ZM113.864 9.44578C111.998 9.44578 110.582 10.0727 109.424 11.2291C108.362 12.476 107.648 14.1687 107.474 16.4883H119.193C119.193 14.2592 118.749 12.5665 117.77 11.3196C116.882 10.0657 115.55 9.44578 113.864 9.44578ZM130.905 7.9272C131.702 7.9272 132.591 8.01776 133.479 8.19191L133.125 9.88463C132.306 9.70352 131.473 9.61296 130.641 9.61993C129.045 9.61993 127.713 10.3305 126.644 11.6679C125.583 13.0959 125.049 14.7887 125.049 16.9272V27.3552H123.272V8.28943H124.778L124.958 11.7654H125.049C125.847 10.3374 126.644 9.36219 127.533 8.82581C128.601 8.19888 129.663 7.9272 130.905 7.9272ZM23.688 0.891602H10.991V18H28.0313V5.34284C28.0383 2.93959 26.0817 0.891602 23.688 0.891602ZM7.09175 0.891602H4.96171C2.56802 0.891602 0.52124 2.84903 0.52124 5.34981V7.48835H7.09175V0.891602ZM0.52124 11.4938H7.09175V18.0905H0.52124V11.4938ZM21.4678 28.6021H23.5978C25.9915 28.6021 28.0383 26.6447 28.0383 24.1439V22.0123H21.4678V28.6021ZM10.991 22.0123H17.5615V28.6091H10.991V22.0123ZM0.52124 22.0123V24.1509C0.52124 26.5541 2.47088 28.6091 4.96171 28.6091H7.09175V22.0123H0.52124Z" fill="white"/>
</g>
<defs>
<clipPath id="clip0_41_7321">
<rect width="133" height="36" fill="white" transform="translate(0.5)"/>
</clipPath>
</defs>
</svg>
