<svg width="129" height="36" viewBox="0 0 129 36" fill="none" xmlns="http://www.w3.org/2000/svg">
<g clip-path="url(#clip0_41_7371)">
<path d="M12.9136 0C7.97311 0 3.97482 3.99723 3.97482 8.93645V12.2858C2.2399 12.5998 0.5 13.0184 0.5 13.5617V31.0408C0.5 31.0408 0.5 31.5243 1.04341 31.7536C3.01264 32.551 10.7599 35.2923 12.5397 35.9203C12.7691 36.005 12.8339 36.005 12.8937 36.005C12.9784 36.005 13.0183 36.005 13.2477 35.9203C15.0274 35.2923 22.7947 32.551 24.7639 31.7536C25.2674 31.5442 25.2874 31.0608 25.2874 31.0608V13.5617C25.2874 13.0184 23.5724 12.5798 21.8325 12.2858V8.93645C21.8574 3.99723 17.8342 0 12.9136 0ZM12.9136 4.27136C15.8251 4.27136 17.5849 6.03073 17.5849 8.94144V11.8521C14.3195 11.6229 11.5327 11.6229 8.2473 11.8521V8.94144C8.2473 6.02575 10.0071 4.27136 12.9136 4.27136ZM12.8937 16.1384C16.9568 16.1384 20.3668 16.4524 20.3668 17.0156V27.9208C20.3668 28.0903 20.3469 28.1102 20.1973 28.17C20.0527 28.2348 13.2676 30.682 13.2676 30.682C13.2676 30.682 12.9934 30.7667 12.9136 30.7667C12.8289 30.7667 12.5597 30.6621 12.5597 30.6621C12.5597 30.6621 5.77455 28.2149 5.62997 28.1501C5.48539 28.0853 5.46047 28.0653 5.46047 27.9009V16.9957C5.42058 16.4325 8.83059 16.1384 12.8937 16.1384Z" fill="white"/>
<path d="M36.8169 28.0696V16.1274H32.4524V11.845H46.0606V16.1274H41.739V28.0696H36.8169Z" fill="white"/>
<path d="M57.0863 28.0696L54.8469 22.9678H53.0649V28.0696H48.1428V11.845H56.8052C60.6075 11.845 62.6468 14.3649 62.6468 17.404C62.6468 20.205 61.0268 21.6864 59.726 22.3247L62.6659 28.0648H57.0863V28.0696ZM57.6676 17.404C57.6676 16.5228 56.8862 16.1417 56.0667 16.1417H53.0649V18.7045H56.0667C56.8862 18.6854 57.6676 18.3043 57.6676 17.404Z" fill="white"/>
<path d="M65.2295 28.0696V11.845H77.5369V16.1274H70.1325V17.7279H77.3559V22.0103H70.1325V23.7919H77.5369V28.0696H65.2295Z" fill="white"/>
<path d="M80.0955 28.0886V24.1873L86.2802 16.1464H80.0955V11.864H92.7603V15.7272L86.5565 23.811H92.9413V28.0934L80.0955 28.0886Z" fill="white"/>
<path d="M94.1421 19.9859C94.1421 15.0032 98.0063 11.583 103.028 11.583C108.031 11.583 111.915 14.9842 111.915 19.9859C111.915 24.9685 108.051 28.3697 103.028 28.3697C98.0063 28.3697 94.1421 24.9685 94.1421 19.9859ZM106.912 19.9859C106.912 17.7232 105.373 15.9226 103.009 15.9226C100.646 15.9226 99.107 17.7232 99.107 19.9859C99.107 22.2486 100.646 24.0492 103.009 24.0492C105.392 24.0492 106.912 22.2486 106.912 19.9859Z" fill="white"/>
<path d="M122.917 28.0886L120.677 22.9869H118.895V28.0886H113.973V11.864H122.636C126.438 11.864 128.477 14.3839 128.477 17.4231C128.477 20.224 126.857 21.7055 125.556 22.3438L128.496 28.0838H122.917V28.0886ZM123.517 17.404C123.517 16.5227 122.736 16.1417 121.916 16.1417H118.914V18.7044H121.916C122.74 18.6854 123.517 18.3043 123.517 17.404Z" fill="white"/>
</g>
<defs>
<clipPath id="clip0_41_7371">
<rect width="128" height="36" fill="white" transform="translate(0.5)"/>
</clipPath>
</defs>
</svg>
