<svg width="102" height="36" viewBox="0 0 102 36" fill="none" xmlns="http://www.w3.org/2000/svg">
<g clip-path="url(#clip0_41_7325)">
<path d="M57.3775 18.0392C57.3856 19.1938 57.1934 20.3411 56.8095 21.4292C56.4493 22.4557 55.8916 23.4006 55.1682 24.2101C54.4283 25.0213 53.525 25.6645 52.5186 26.0969C50.2079 27.0295 47.6288 27.0295 45.3181 26.0969C44.3081 25.6611 43.4008 25.016 42.6551 24.2038C41.9257 23.3991 41.3672 22.4532 41.0138 21.4238C40.2734 19.2289 40.2734 16.8495 41.0138 14.6546C41.3648 13.6196 41.9235 12.6681 42.6551 11.8593C43.4016 11.0496 44.3089 10.4068 45.3181 9.97251C47.6262 9.04074 50.2025 9.04074 52.5105 9.97251C53.5177 10.4064 54.4214 11.0515 55.161 11.8647C55.8895 12.6781 56.4499 13.6292 56.8095 14.6626C57.1908 15.7468 57.3829 16.8892 57.3775 18.0392ZM48.9224 24.0079C49.6664 24.0277 50.4048 23.8739 51.0799 23.5586C51.6818 23.2631 52.2085 22.8328 52.6195 22.3008C53.0489 21.7369 53.3633 21.0932 53.5447 20.4067C53.9492 18.8586 53.9492 17.2315 53.5447 15.6833C53.364 14.9975 53.0508 14.3542 52.6231 13.7902C52.212 13.2582 51.6854 12.8279 51.0835 12.5323C50.4034 12.2306 49.6683 12.0747 48.925 12.0747C48.1818 12.0747 47.4467 12.2306 46.7666 12.5323C46.1647 12.8279 45.6381 13.2582 45.227 13.7902C44.7992 14.3542 44.4861 14.9975 44.3054 15.6833C43.9009 17.2315 43.9009 18.8586 44.3054 20.4067C44.4877 21.088 44.8012 21.7266 45.2279 22.2864C45.6386 22.8192 46.1657 23.2496 46.7684 23.5443C47.4424 23.8641 48.1809 24.0222 48.9259 24.0061L48.9224 24.0079ZM59.5985 26.4958V9.58436H63.1321V17.7103L68.9627 9.58436H73.0518L66.8677 17.9404L73.4814 26.4985H69.1145L63.1313 18.1946V26.4985L59.5985 26.4958ZM74.8691 9.58436H84.9701V12.4029H78.4037V16.4911H84.6638V19.3097H78.4037V23.6781H85.0425V26.4958H74.87L74.8691 9.58436ZM97.5519 9.58436H101.392L95.8677 17.9898L101.5 26.4958H97.6386L94.0093 20.7311L90.3792 26.4958H86.507L92.1331 17.9889L86.6133 9.58256H90.4533L94.012 15.2988L97.5519 9.58436Z" fill="white"/>
<path d="M16.4645 16.0625C17.73 16.3743 19.0516 16.3743 20.317 16.0625C20.6704 14.6155 21.4108 13.2935 22.458 12.2398C23.5052 11.1862 24.8192 10.4412 26.2574 10.0857C26.5489 8.8863 26.5656 7.63594 26.3064 6.42907C26.0471 5.22219 25.5187 4.09038 24.7609 3.11913C24.0032 2.14787 23.036 1.36258 21.9323 0.822568C20.8287 0.282557 19.6175 0.00195313 18.3903 0.00195312C17.1631 0.00195313 15.9519 0.282557 14.8483 0.822568C13.7447 1.36258 12.7775 2.14787 12.0197 3.11913C11.262 4.09038 10.7335 5.22219 10.4743 6.42907C10.215 7.63594 10.2318 8.8863 10.5232 10.0857C11.9616 10.4411 13.2758 11.186 14.3231 12.2396C15.3705 13.2933 16.1111 14.6154 16.4645 16.0625Z" fill="#7ABDF7"/>
<path d="M20.3171 19.9367C19.0516 19.6249 17.7301 19.6249 16.4646 19.9367C16.111 21.3836 15.3704 22.7055 14.3233 23.7591C13.2761 24.8126 11.9623 25.5577 10.5242 25.9135C10.2327 27.1129 10.216 28.3633 10.4752 29.5701C10.7345 30.777 11.263 31.9088 12.0207 32.8801C12.7784 33.8513 13.7457 34.6366 14.8493 35.1766C15.9529 35.7167 17.1641 35.9973 18.3913 35.9973C19.6185 35.9973 20.8297 35.7167 21.9333 35.1766C23.0369 34.6366 24.0042 33.8513 24.7619 32.8801C25.5197 31.9088 26.0481 30.777 26.3074 29.5701C26.5666 28.3633 26.5499 27.1129 26.2584 25.9135C24.82 25.5581 23.5059 24.8132 22.4585 23.7596C21.4111 22.7059 20.6705 21.3838 20.3171 19.9367Z" fill="#0D74F5"/>
<path d="M28.1828 9.85116C27.5341 9.85107 26.8876 9.92951 26.2575 10.0848C25.9042 11.5316 25.1639 12.8535 24.1169 13.9069C23.0698 14.9604 21.756 15.7052 20.318 16.0607C20.0081 17.3339 20.0081 18.6635 20.318 19.9368C21.756 20.2924 23.0698 21.0375 24.1168 22.0911C25.1639 23.1447 25.9042 24.4667 26.2575 25.9136C27.3699 26.1869 28.5272 26.2199 29.6532 26.0102C30.7791 25.8005 31.8481 25.353 32.7895 24.6971C33.731 24.0412 34.5235 23.192 35.1148 22.2054C35.706 21.2187 36.0826 20.1172 36.2197 18.9734C36.3568 17.8295 36.2513 16.6695 35.9101 15.5697C35.5689 14.47 34.9997 13.4555 34.2402 12.5933C33.4807 11.731 32.5482 11.0407 31.504 10.5677C30.4599 10.0947 29.3279 9.84989 28.1828 9.84937V9.85116Z" fill="#4494F7"/>
<path d="M16.4646 19.9367C16.7744 18.6635 16.7744 17.3338 16.4646 16.0606C15.0265 15.7052 13.7126 14.9603 12.6654 13.9069C11.6182 12.8534 10.8777 11.5316 10.5242 10.0847C9.33208 9.79146 8.08932 9.77462 6.8898 10.0355C5.69028 10.2963 4.56536 10.828 3.60002 11.5904C2.63468 12.3528 1.85417 13.3259 1.31745 14.4363C0.780726 15.5467 0.501831 16.7653 0.501831 18C0.501831 19.2348 0.780726 20.4533 1.31745 21.5637C1.85417 22.6741 2.63468 23.6473 3.60002 24.4097C4.56536 25.172 5.69028 25.7037 6.8898 25.9646C8.08932 26.2254 9.33208 26.2086 10.5242 25.9153C10.8773 24.468 11.6177 23.1457 12.6649 22.0917C13.7121 21.0378 15.0262 20.2925 16.4646 19.9367Z" fill="#005CF4"/>
<path d="M20.317 16.0625C21.7551 15.7067 23.0689 14.9616 24.1161 13.908C25.1632 12.8545 25.9038 11.5326 26.2574 10.0857C24.8192 10.4412 23.5052 11.1862 22.458 12.2398C21.4108 13.2934 20.6704 14.6155 20.317 16.0625Z" fill="#186EF9"/>
<path d="M20.317 19.9368C20.6704 21.3838 21.4108 22.7058 22.458 23.7594C23.5052 24.813 24.8192 25.558 26.2574 25.9136C25.9038 24.4667 25.1632 23.1448 24.1161 22.0912C23.0689 21.0376 21.7551 20.2926 20.317 19.9368Z" fill="#0246F2"/>
<path d="M16.4646 16.0625C16.1109 14.6156 15.3704 13.2937 14.3232 12.2401C13.2761 11.1866 11.9622 10.4415 10.5242 10.0857C10.8778 11.5326 11.6183 12.8545 12.6655 13.908C13.7127 14.9616 15.0265 15.7067 16.4646 16.0625Z" fill="#0046F8"/>
<path d="M16.4646 19.9368C15.0265 20.2926 13.7127 21.0376 12.6655 22.0912C11.6183 23.1448 10.8778 24.4667 10.5242 25.9136C11.9622 25.5578 13.2761 24.8127 14.3232 23.7591C15.3704 22.7055 16.1109 21.3836 16.4646 19.9368Z" fill="#0729F1"/>
<path d="M16.4646 16.0625C16.1109 14.6156 15.3704 13.2937 14.3232 12.2401C13.2761 11.1866 11.9622 10.4415 10.5242 10.0857C10.8778 11.5326 11.6183 12.8545 12.6655 13.908C13.7127 14.9616 15.0265 15.7067 16.4646 16.0625Z" fill="white"/>
<path d="M57.3775 18.0392C57.3856 19.1938 57.1934 20.3411 56.8095 21.4292C56.4493 22.4557 55.8916 23.4006 55.1682 24.2101C54.4283 25.0213 53.525 25.6645 52.5186 26.0969C50.2079 27.0295 47.6288 27.0295 45.3181 26.0969C44.3081 25.6611 43.4008 25.016 42.6551 24.2038C41.9257 23.3991 41.3672 22.4532 41.0138 21.4238C40.2734 19.2289 40.2734 16.8495 41.0138 14.6546C41.3648 13.6196 41.9235 12.6681 42.6551 11.8593C43.4016 11.0496 44.3089 10.4068 45.3181 9.97251C47.6262 9.04074 50.2025 9.04074 52.5105 9.97251C53.5177 10.4064 54.4214 11.0515 55.161 11.8647C55.8895 12.6781 56.4499 13.6292 56.8095 14.6626C57.1908 15.7468 57.3829 16.8892 57.3775 18.0392ZM48.9224 24.0079C49.6664 24.0277 50.4048 23.8739 51.0799 23.5586C51.6818 23.2631 52.2085 22.8328 52.6195 22.3008C53.0489 21.7369 53.3633 21.0932 53.5447 20.4067C53.9492 18.8586 53.9492 17.2315 53.5447 15.6833C53.364 14.9975 53.0508 14.3542 52.6231 13.7902C52.212 13.2582 51.6854 12.8279 51.0835 12.5323C50.4034 12.2306 49.6683 12.0747 48.925 12.0747C48.1818 12.0747 47.4467 12.2306 46.7666 12.5323C46.1647 12.8279 45.6381 13.2582 45.227 13.7902C44.7992 14.3542 44.4861 14.9975 44.3054 15.6833C43.9009 17.2315 43.9009 18.8586 44.3054 20.4067C44.4877 21.088 44.8012 21.7266 45.2279 22.2864C45.6386 22.8192 46.1657 23.2496 46.7684 23.5443C47.4424 23.8641 48.1809 24.0222 48.9259 24.0061L48.9224 24.0079ZM59.5985 26.4958V9.58436H63.1321V17.7103L68.9627 9.58436H73.0518L66.8677 17.9404L73.4814 26.4985H69.1145L63.1313 18.1946V26.4985L59.5985 26.4958ZM74.8691 9.58436H84.9701V12.4029H78.4037V16.4911H84.6638V19.3097H78.4037V23.6781H85.0425V26.4958H74.87L74.8691 9.58436ZM97.5519 9.58436H101.392L95.8677 17.9898L101.5 26.4958H97.6386L94.0093 20.7311L90.3792 26.4958H86.507L92.1331 17.9889L86.6133 9.58256H90.4533L94.012 15.2988L97.5519 9.58436Z" fill="white"/>
<path d="M16.4645 16.0625C17.73 16.3743 19.0516 16.3743 20.317 16.0625C20.6704 14.6155 21.4108 13.2935 22.458 12.2398C23.5052 11.1862 24.8192 10.4412 26.2574 10.0857C26.5489 8.8863 26.5656 7.63594 26.3064 6.42907C26.0471 5.22219 25.5187 4.09038 24.7609 3.11913C24.0032 2.14787 23.036 1.36258 21.9323 0.822568C20.8287 0.282557 19.6175 0.00195313 18.3903 0.00195312C17.1631 0.00195313 15.9519 0.282557 14.8483 0.822568C13.7447 1.36258 12.7775 2.14787 12.0197 3.11913C11.262 4.09038 10.7335 5.22219 10.4743 6.42907C10.215 7.63594 10.2318 8.8863 10.5232 10.0857C11.9616 10.4411 13.2758 11.186 14.3231 12.2396C15.3705 13.2933 16.1111 14.6154 16.4645 16.0625Z" fill="white"/>
<path d="M20.3171 19.9367C19.0516 19.6249 17.7301 19.6249 16.4646 19.9367C16.111 21.3836 15.3704 22.7055 14.3233 23.7591C13.2761 24.8126 11.9623 25.5577 10.5242 25.9135C10.2327 27.1129 10.216 28.3633 10.4752 29.5701C10.7345 30.777 11.263 31.9088 12.0207 32.8801C12.7784 33.8513 13.7457 34.6366 14.8493 35.1766C15.9529 35.7167 17.1641 35.9973 18.3913 35.9973C19.6185 35.9973 20.8297 35.7167 21.9333 35.1766C23.0369 34.6366 24.0042 33.8513 24.7619 32.8801C25.5197 31.9088 26.0481 30.777 26.3074 29.5701C26.5666 28.3633 26.5499 27.1129 26.2584 25.9135C24.82 25.5581 23.5059 24.8132 22.4585 23.7596C21.4111 22.7059 20.6705 21.3838 20.3171 19.9367Z" fill="white"/>
<path d="M28.1828 9.85116C27.5341 9.85107 26.8876 9.92951 26.2575 10.0848C25.9042 11.5316 25.1639 12.8535 24.1169 13.9069C23.0698 14.9604 21.756 15.7052 20.318 16.0607C20.0081 17.3339 20.0081 18.6635 20.318 19.9368C21.756 20.2924 23.0698 21.0375 24.1168 22.0911C25.1639 23.1447 25.9042 24.4667 26.2575 25.9136C27.3699 26.1869 28.5272 26.2199 29.6532 26.0102C30.7791 25.8005 31.8481 25.353 32.7895 24.6971C33.731 24.0412 34.5235 23.192 35.1148 22.2054C35.706 21.2187 36.0826 20.1172 36.2197 18.9734C36.3568 17.8295 36.2513 16.6695 35.9101 15.5697C35.5689 14.47 34.9997 13.4555 34.2402 12.5933C33.4807 11.731 32.5482 11.0407 31.504 10.5677C30.4599 10.0947 29.3279 9.84989 28.1828 9.84937V9.85116Z" fill="white"/>
<path d="M16.4646 19.9367C16.7744 18.6635 16.7744 17.3338 16.4646 16.0606C15.0265 15.7052 13.7126 14.9603 12.6654 13.9069C11.6182 12.8534 10.8777 11.5316 10.5242 10.0847C9.33208 9.79146 8.08932 9.77462 6.8898 10.0355C5.69028 10.2963 4.56536 10.828 3.60002 11.5904C2.63468 12.3528 1.85417 13.3259 1.31745 14.4363C0.780726 15.5467 0.501831 16.7653 0.501831 18C0.501831 19.2348 0.780726 20.4533 1.31745 21.5637C1.85417 22.6741 2.63468 23.6473 3.60002 24.4097C4.56536 25.172 5.69028 25.7037 6.8898 25.9646C8.08932 26.2254 9.33208 26.2086 10.5242 25.9153C10.8773 24.468 11.6177 23.1457 12.6649 22.0917C13.7121 21.0378 15.0262 20.2925 16.4646 19.9367Z" fill="white"/>
<path d="M20.317 16.0625C21.7551 15.7067 23.0689 14.9616 24.1161 13.908C25.1632 12.8545 25.9038 11.5326 26.2574 10.0857C24.8192 10.4412 23.5052 11.1862 22.458 12.2398C21.4108 13.2934 20.6704 14.6155 20.317 16.0625Z" fill="white"/>
<path d="M20.317 19.9368C20.6704 21.3838 21.4108 22.7058 22.458 23.7594C23.5052 24.813 24.8192 25.558 26.2574 25.9136C25.9038 24.4667 25.1632 23.1448 24.1161 22.0912C23.0689 21.0376 21.7551 20.2926 20.317 19.9368Z" fill="white"/>
<path d="M16.4646 19.9368C15.0265 20.2926 13.7127 21.0376 12.6655 22.0912C11.6183 23.1448 10.8778 24.4667 10.5242 25.9136C11.9622 25.5578 13.2761 24.8127 14.3232 23.7591C15.3704 22.7055 16.1109 21.3836 16.4646 19.9368Z" fill="white"/>
</g>
<defs>
<clipPath id="clip0_41_7325">
<rect width="101" height="36" fill="white" transform="translate(0.5)"/>
</clipPath>
</defs>
</svg>
