<svg width="176" height="36" viewBox="0 0 176 36" fill="none" xmlns="http://www.w3.org/2000/svg">
<g clip-path="url(#clip0_41_7302)">
<path d="M36.2187 10.0194L20.9164 0V5.60188L30.733 11.972L29.5782 15.6213H20.9164V20.2628H29.5782L30.733 23.912L20.9164 30.2821V35.8841L36.2187 25.8968L33.7164 17.9581L36.2187 10.0194Z" fill="url(#paint0_linear_41_7302)"/>
<path d="M7.60302 20.2628H16.2326V15.6213H7.57094L6.44812 11.972L16.2326 5.60188V0L0.930298 10.0194L3.43257 17.9581L0.930298 25.8968L16.2647 35.8841V30.2821L6.44812 23.912L7.60302 20.2628Z" fill="url(#paint1_linear_41_7302)"/>
<mask id="mask0_41_7302" style="mask-type:alpha" maskUnits="userSpaceOnUse" x="0" y="0" width="37" height="36">
<path d="M36.2187 10.0194L20.9164 0V5.60188L30.733 11.972L29.5782 15.6213H20.9164V20.2628H29.5782L30.733 23.912L20.9164 30.2821V35.8841L36.2187 25.8968L33.7166 17.9581L36.2187 10.0194Z" fill="url(#paint2_linear_41_7302)"/>
<path d="M7.60313 20.2628H16.2328V15.6213H7.57105L6.44825 11.972L16.2328 5.60188V0L0.93042 10.0194L3.43269 17.9581L0.93042 25.8968L16.2648 35.8841V30.2821L6.44825 23.912L7.60313 20.2628Z" fill="url(#paint3_linear_41_7302)"/>
</mask>
<g mask="url(#mask0_41_7302)">
<path d="M35.9847 0H0.949219V35.8841H35.9847V0Z" fill="white"/>
</g>
<path d="M66.6633 9.86816V13.0053H52.1857V16.2154H64.4868V19.3525H52.1857V22.8788H66.6633V26.016H48.4717V9.86816H66.6633Z" fill="white"/>
<path d="M68.7166 26.016L77.0343 17.8447L68.9523 9.86816H74.0654L79.7678 15.6318L85.2345 9.86816H90.0177L81.9592 17.8447L90.2769 26.016H85.1165L79.7678 20.0822L73.6649 26.016H68.7166Z" fill="white"/>
<path d="M100.251 9.86816C106.99 9.86816 111.043 13.2381 111.043 17.9421C111.043 22.646 106.99 26.016 100.251 26.016C93.512 26.016 89.4824 22.646 89.4824 17.9421C89.4824 13.2381 93.512 9.86816 100.251 9.86816ZM100.251 12.8871C96.1984 12.8871 93.211 14.9231 93.211 17.9421C93.211 20.961 96.1984 22.9971 100.251 22.9971C104.327 22.9971 107.314 20.961 107.314 17.9421C107.314 14.9231 104.327 12.8871 100.251 12.8871Z" fill="white"/>
<path d="M124.476 9.86816C129.873 9.86816 133.126 12.8594 133.126 17.9178C133.126 23.0247 129.897 26.016 124.523 26.016H113.587V9.86816H124.476ZM129.308 17.9178C129.308 14.7563 127.422 13.0053 124.004 13.0053H117.287V22.8788H124.004C127.422 22.8788 129.308 21.1036 129.308 17.9178Z" fill="white"/>
<path d="M145.365 26.016C139.681 26.016 135.371 23.4399 135.371 18.6934V9.86816H139.089V18.3356C139.089 21.2695 142.144 22.6291 145.365 22.6291C148.609 22.6291 151.664 21.2932 151.664 18.3356V9.86816H155.359V18.6934C155.359 23.4399 151.072 26.016 145.365 26.016Z" fill="white"/>
<path d="M165.767 26.016C162.714 26.016 159.422 25.4544 157.084 24.4013L158.3 21.4056C160.4 22.3652 163.286 22.9737 165.886 22.9737C168.868 22.9737 171.659 22.3418 171.659 21.2184C171.659 20.3993 170.777 20.0482 168.94 19.7674L163.739 19.2057C159.732 18.6675 157.776 17.2868 157.776 14.8529C157.776 11.717 161.092 9.86816 165.958 9.86816C168.892 9.86816 172.924 10.4064 174.999 11.3425L173.782 14.1977C171.731 13.3551 168.248 12.9339 165.791 12.9339C163.262 12.9339 161.592 13.519 161.592 14.5955C161.592 15.3444 162.427 15.7188 164.574 16.0231L169.632 16.5847C173.496 17.123 175.5 18.4335 175.5 20.9844C175.5 24.2139 171.254 26.016 165.767 26.016Z" fill="white"/>
</g>
<defs>
<linearGradient id="paint0_linear_41_7302" x1="31.2685" y1="38.3512" x2="21.0451" y2="-3.94727" gradientUnits="userSpaceOnUse">
<stop stop-color="#0B46F9"/>
<stop offset="1" stop-color="#BBFBE0"/>
</linearGradient>
<linearGradient id="paint1_linear_41_7302" x1="31.2685" y1="38.3512" x2="21.045" y2="-3.94727" gradientUnits="userSpaceOnUse">
<stop stop-color="#0B46F9"/>
<stop offset="1" stop-color="#BBFBE0"/>
</linearGradient>
<linearGradient id="paint2_linear_41_7302" x1="31.2685" y1="38.3512" x2="21.0451" y2="-3.94727" gradientUnits="userSpaceOnUse">
<stop stop-color="#0B46F9"/>
<stop offset="1" stop-color="#BBFBE0"/>
</linearGradient>
<linearGradient id="paint3_linear_41_7302" x1="31.2686" y1="38.3512" x2="21.0451" y2="-3.94727" gradientUnits="userSpaceOnUse">
<stop stop-color="#0B46F9"/>
<stop offset="1" stop-color="#BBFBE0"/>
</linearGradient>
<clipPath id="clip0_41_7302">
<rect width="175" height="36" fill="white" transform="translate(0.5)"/>
</clipPath>
</defs>
</svg>
