<svg width="59" height="45" viewBox="0 0 59 45" fill="none" xmlns="http://www.w3.org/2000/svg">
<mask id="mask0_40_6726" style="mask-type:luminance" maskUnits="userSpaceOnUse" x="0" y="0" width="59" height="45">
<path d="M58.5 0.733337H0.382324V45H58.5V0.733337Z" fill="white"/>
</mask>
<g mask="url(#mask0_40_6726)">
<path d="M57.3533 44.3997V44.5136H57.4617C57.4818 44.5139 57.5019 44.5088 57.5198 44.4991C57.5265 44.4941 57.5332 44.4876 57.5366 44.48C57.5399 44.4724 57.5422 44.464 57.5422 44.4555C57.5422 44.4472 57.5399 44.439 57.5366 44.4316C57.5332 44.4242 57.5265 44.4178 57.5198 44.4131C57.5031 44.4028 57.4818 44.3978 57.4617 44.3986H57.3533V44.3997ZM57.4628 44.3193C57.5098 44.3165 57.5556 44.3296 57.5936 44.3562C57.6081 44.3684 57.6204 44.3838 57.6282 44.4013C57.6361 44.4188 57.6394 44.4378 57.6394 44.4569C57.6394 44.4734 57.6372 44.4898 57.6305 44.5051C57.6238 44.5204 57.6148 44.5341 57.6025 44.5455C57.5735 44.5702 57.5366 44.5851 57.4986 44.5879L57.6439 44.75H57.5321L57.398 44.589H57.3544V44.75H57.2616V44.3195H57.4651L57.4628 44.3193ZM57.4338 44.8985C57.4829 44.8989 57.5321 44.8892 57.5768 44.8701C57.6204 44.8518 57.6595 44.8256 57.6931 44.7929C57.7266 44.7603 57.7534 44.7216 57.7713 44.6792C57.8093 44.589 57.8093 44.4877 57.7713 44.3975C57.7534 44.3551 57.7266 44.3165 57.6931 44.2837C57.6595 44.2511 57.6204 44.2249 57.5768 44.2066C57.531 44.1885 57.4829 44.1794 57.4338 44.1798C57.3846 44.1794 57.3354 44.1885 57.2885 44.2066C57.2449 44.2245 57.2035 44.2508 57.17 44.2837C57.1186 44.3353 57.0839 44.4006 57.0694 44.4714C57.056 44.5423 57.0638 44.6154 57.0918 44.682C57.1096 44.7246 57.1365 44.7634 57.17 44.7958C57.2035 44.8288 57.2449 44.8549 57.2885 44.8728C57.3343 44.8921 57.3846 44.9017 57.4338 44.9014V44.8985ZM57.4338 44.0762C57.5612 44.0761 57.6841 44.1253 57.7758 44.2128C57.8194 44.255 57.854 44.3051 57.8786 44.3605C57.9032 44.4174 57.9155 44.4786 57.9155 44.5405C57.9155 44.6024 57.9032 44.6635 57.8786 44.7204C57.854 44.7754 57.8194 44.8256 57.7758 44.8681C57.7311 44.9099 57.6785 44.9437 57.6226 44.9677C57.5623 44.9923 57.4986 45.005 57.4338 45.0046C57.3689 45.0051 57.3041 44.9925 57.2438 44.9677C57.1856 44.9442 57.1331 44.9104 57.0895 44.8681C57.0459 44.824 57.0113 44.7722 56.9878 44.7156C56.9632 44.6587 56.9498 44.5975 56.9498 44.5356C56.9498 44.4738 56.9632 44.4126 56.9878 44.3557C57.0113 44.3002 57.0471 44.2501 57.0906 44.208C57.1342 44.1649 57.1868 44.131 57.2449 44.1084C57.3052 44.0835 57.3701 44.071 57.436 44.0715L57.4338 44.0762ZM12.9391 42.414C12.9391 41.5932 13.4883 40.919 14.3859 40.919C15.2438 40.919 15.8226 41.5642 15.8226 42.414C15.8226 43.2637 15.2438 43.909 14.3859 43.909C13.4883 43.909 12.9391 43.2347 12.9391 42.414ZM16.8005 42.414V40.0783H15.7633V40.6473C15.4344 40.2268 14.9355 39.9631 14.2569 39.9631C12.9202 39.9631 11.8712 40.9895 11.8712 42.4151C11.8712 43.8407 12.9197 44.8672 14.2569 44.8672C14.9351 44.8672 15.4344 44.6031 15.7633 44.183V44.75H16.7992V42.414H16.8005ZM51.8433 42.414C51.8433 41.5932 52.3921 40.919 53.2906 40.919C54.149 40.919 54.7268 41.5642 54.7268 42.414C54.7268 43.2637 54.149 43.909 53.2906 43.909C52.3921 43.909 51.8433 43.2347 51.8433 42.414ZM55.7059 42.414V38.2035H54.6676V40.6473C54.339 40.2268 53.8394 39.9631 53.161 39.9631C51.8243 39.9631 50.7759 40.9895 50.7759 42.4151C50.7759 43.8407 51.8243 44.8672 53.161 44.8672C53.8394 44.8672 54.339 44.6031 54.6676 44.183V44.75H55.7059V42.414ZM29.6725 40.8709C30.3409 40.8709 30.7701 41.2811 30.8796 42.0035H28.4051C28.5158 41.3293 28.9338 40.8709 29.6725 40.8709ZM29.6938 39.9605C28.2956 39.9605 27.3176 40.9562 27.3176 42.4126C27.3176 43.8974 28.3347 44.8646 29.7631 44.8646C30.4806 44.8646 31.1389 44.6891 31.7178 44.2103L31.2093 43.4578C30.8092 43.7708 30.3006 43.9463 29.8223 43.9463C29.1539 43.9463 28.5448 43.6433 28.3951 42.8026H31.9369C31.9469 42.6763 31.957 42.5488 31.957 42.4123C31.9469 40.9565 31.0271 39.9602 29.6926 39.9602L29.6938 39.9605ZM42.2136 42.4123C42.2136 41.5916 42.7635 40.9173 43.661 40.9173C44.5193 40.9173 45.0972 41.5626 45.0972 42.4123C45.0972 43.2621 44.5193 43.9073 43.661 43.9073C42.7635 43.9073 42.2136 43.2331 42.2136 42.4123ZM46.0751 42.4123V40.0783H45.0391V40.6473C44.7082 40.2268 44.2109 39.9631 43.5325 39.9631C42.1958 39.9631 41.1463 40.9895 41.1463 42.4151C41.1463 43.8407 42.1946 44.8672 43.5325 44.8672C44.2109 44.8672 44.7082 44.6031 45.0391 44.183V44.75H46.0751V42.414V42.4123ZM36.3572 42.4123C36.3572 43.8288 37.3642 44.8643 38.902 44.8643C39.6196 44.8643 40.0991 44.7078 40.6165 44.3075L40.1181 43.4868C39.7291 43.7608 39.3201 43.9073 38.8685 43.9073C38.0403 43.8973 37.4323 43.3113 37.4323 42.4123C37.4323 41.5133 38.0403 40.9276 38.8685 40.9173C39.3189 40.9173 39.728 41.0638 40.1181 41.3378L40.6165 40.517C40.0979 40.1167 39.6196 39.9602 38.902 39.9602C37.3642 39.9602 36.3572 40.9955 36.3572 42.4123ZM49.7276 39.9602C49.1285 39.9602 48.7396 40.2342 48.4702 40.6445V40.0783H47.442V44.7474H48.4803V42.1301C48.4803 41.3574 48.8201 40.9281 49.4973 40.9281C49.7198 40.925 49.9399 40.9649 50.1456 41.0456L50.4652 40.0886C50.2361 40.0001 49.9366 39.9611 49.7265 39.9611L49.7276 39.9602ZM21.9283 40.4496C21.4288 40.1275 20.7414 39.9611 19.9825 39.9611C18.7743 39.9611 17.9968 40.528 17.9968 41.4559C17.9968 42.2172 18.5754 42.6868 19.6428 42.8333L20.1323 42.9016C20.7012 42.9799 20.9694 43.1264 20.9694 43.3901C20.9694 43.7511 20.5916 43.9571 19.8819 43.9571C19.1644 43.9571 18.6458 43.7323 18.296 43.4686L17.8088 44.2604C18.3776 44.6706 19.0962 44.8663 19.8741 44.8663C21.2511 44.8663 22.0491 44.2314 22.0491 43.3423C22.0491 42.5215 21.4209 42.0922 20.3826 41.9457L19.8942 41.8763C19.4449 41.8194 19.0862 41.7309 19.0862 41.418C19.0862 41.0766 19.4248 40.8712 19.9937 40.8712C20.6028 40.8712 21.1918 41.096 21.4802 41.2715L21.9295 40.4507L21.9283 40.4496ZM35.3099 39.962C34.712 39.962 34.3219 40.2359 34.0537 40.6461V40.0783H33.0255V44.7474H34.0626V42.1301C34.0626 41.3574 34.4024 40.9281 35.0797 40.9281C35.3021 40.925 35.5223 40.9649 35.7291 41.0456L36.0487 40.0886C35.8185 40.0001 35.5189 39.9611 35.3088 39.9611L35.3099 39.962ZM26.4593 40.0783H24.7638V38.6619H23.7155V40.0783H22.7476V41.0063H23.7155V43.1364C23.7155 44.2197 24.1446 44.865 25.3718 44.865C25.8222 44.865 26.3397 44.7284 26.6694 44.5039L26.3699 43.6345C26.0603 43.81 25.7205 43.8985 25.4512 43.8985C24.9326 43.8985 24.7638 43.5855 24.7638 43.117V41.0072H26.4593V40.0783ZM10.9541 44.7485V41.8183C10.9541 40.7147 10.2357 39.9722 9.07775 39.9622C8.46897 39.9522 7.84107 40.1377 7.40139 40.793C7.07247 40.2752 6.554 39.9622 5.82518 39.9622C5.31587 39.9622 4.81807 40.1087 4.42834 40.6555V40.0783H3.39038V44.7474H4.4365V42.1585C4.4365 41.348 4.89563 40.9173 5.60466 40.9173C6.29336 40.9173 6.64173 41.3568 6.64173 42.1483V44.7469H7.69019V42.1579C7.69019 41.3474 8.16877 40.9167 8.85724 40.9167C9.56538 40.9167 9.90336 41.3563 9.90336 42.1478V44.7463L10.9541 44.7485Z" fill="white"/>
<path d="M37.3016 32.1454H21.5852V4.49298H37.3016V32.1454Z" fill="#FF5F00"/>
<path d="M22.5833 18.319C22.5833 12.7097 25.2656 7.71293 29.4434 4.49275C26.2816 2.05166 22.3698 0.726869 18.3429 0.732624C8.42346 0.732624 0.382324 8.60623 0.382324 18.319C0.382324 28.0318 8.42346 35.9054 18.3429 35.9054C22.3698 35.9112 26.2816 34.5863 29.4434 32.1453C25.2667 28.9256 22.5833 23.9286 22.5833 18.319Z" fill="#EB001B"/>
<path d="M58.509 18.3197C58.509 28.0325 50.4675 35.9061 40.5473 35.9061C36.5204 35.9118 32.6086 34.587 29.4457 32.1459C33.6246 28.9258 36.3069 23.9293 36.3069 18.3197C36.3069 12.7101 33.6246 7.71361 29.4457 4.49354C32.6086 2.05245 36.5204 0.727662 40.5473 0.733417C50.4675 0.733417 58.509 8.60691 58.509 18.3197Z" fill="#F79E1B"/>
</g>
</svg>
