<svg width="260" height="72" viewBox="0 0 260 72" fill="none" xmlns="http://www.w3.org/2000/svg">
<path d="M3.49994 58.9979C60.8535 53.6111 191.693 44.5706 256.221 51.503" stroke="#F49F1C" stroke-width="7" stroke-linecap="round"/>
<path d="M17.8625 35.432C15.9185 35.432 14.1065 35.12 12.4265 34.496C10.7705 33.848 9.33045 32.936 8.10645 31.76C6.88245 30.584 5.92245 29.204 5.22645 27.62C4.55445 26.036 4.21845 24.296 4.21845 22.4C4.21845 20.504 4.55445 18.764 5.22645 17.18C5.92245 15.596 6.88245 14.216 8.10645 13.04C9.35445 11.864 10.8065 10.964 12.4625 10.34C14.1185 9.692 15.9305 9.368 17.8985 9.368C20.0825 9.368 22.0505 9.752 23.8025 10.52C25.5785 11.264 27.0665 12.368 28.2665 13.832L24.5225 17.288C23.6585 16.304 22.6985 15.572 21.6425 15.092C20.5865 14.588 19.4345 14.336 18.1865 14.336C17.0105 14.336 15.9305 14.528 14.9465 14.912C13.9625 15.296 13.1105 15.848 12.3905 16.568C11.6705 17.288 11.1065 18.14 10.6985 19.124C10.3145 20.108 10.1225 21.2 10.1225 22.4C10.1225 23.6 10.3145 24.692 10.6985 25.676C11.1065 26.66 11.6705 27.512 12.3905 28.232C13.1105 28.952 13.9625 29.504 14.9465 29.888C15.9305 30.272 17.0105 30.464 18.1865 30.464C19.4345 30.464 20.5865 30.224 21.6425 29.744C22.6985 29.24 23.6585 28.484 24.5225 27.476L28.2665 30.932C27.0665 32.396 25.5785 33.512 23.8025 34.28C22.0505 35.048 20.0705 35.432 17.8625 35.432ZM40.3568 35.288C38.2928 35.288 36.4568 34.856 34.8488 33.992C33.2648 33.128 32.0048 31.952 31.0688 30.464C30.1568 28.952 29.7008 27.236 29.7008 25.316C29.7008 23.372 30.1568 21.656 31.0688 20.168C32.0048 18.656 33.2648 17.48 34.8488 16.64C36.4568 15.776 38.2928 15.344 40.3568 15.344C42.3968 15.344 44.2208 15.776 45.8288 16.64C47.4368 17.48 48.6968 18.644 49.6088 20.132C50.5208 21.62 50.9768 23.348 50.9768 25.316C50.9768 27.236 50.5208 28.952 49.6088 30.464C48.6968 31.952 47.4368 33.128 45.8288 33.992C44.2208 34.856 42.3968 35.288 40.3568 35.288ZM40.3568 30.68C41.2928 30.68 42.1328 30.464 42.8768 30.032C43.6208 29.6 44.2088 28.988 44.6408 28.196C45.0728 27.38 45.2888 26.42 45.2888 25.316C45.2888 24.188 45.0728 23.228 44.6408 22.436C44.2088 21.644 43.6208 21.032 42.8768 20.6C42.1328 20.168 41.2928 19.952 40.3568 19.952C39.4208 19.952 38.5808 20.168 37.8368 20.6C37.0928 21.032 36.4928 21.644 36.0368 22.436C35.6048 23.228 35.3888 24.188 35.3888 25.316C35.3888 26.42 35.6048 27.38 36.0368 28.196C36.4928 28.988 37.0928 29.6 37.8368 30.032C38.5808 30.464 39.4208 30.68 40.3568 30.68ZM79.5347 15.344C81.0707 15.344 82.4267 15.656 83.6027 16.28C84.8027 16.88 85.7387 17.816 86.4107 19.088C87.1067 20.336 87.4547 21.944 87.4547 23.912V35H81.8387V24.776C81.8387 23.216 81.5147 22.064 80.8667 21.32C80.2187 20.576 79.3067 20.204 78.1307 20.204C77.3147 20.204 76.5827 20.396 75.9347 20.78C75.2867 21.14 74.7827 21.692 74.4227 22.436C74.0627 23.18 73.8827 24.128 73.8827 25.28V35H68.2667V24.776C68.2667 23.216 67.9427 22.064 67.2947 21.32C66.6707 20.576 65.7707 20.204 64.5947 20.204C63.7787 20.204 63.0467 20.396 62.3987 20.78C61.7507 21.14 61.2467 21.692 60.8867 22.436C60.5267 23.18 60.3467 24.128 60.3467 25.28V35H54.7307V15.632H60.0947V20.924L59.0867 19.376C59.7587 18.056 60.7067 17.06 61.9307 16.388C63.1787 15.692 64.5947 15.344 66.1787 15.344C67.9547 15.344 69.5027 15.8 70.8227 16.712C72.1667 17.6 73.0547 18.968 73.4867 20.816L71.5067 20.276C72.1547 18.764 73.1867 17.564 74.6027 16.676C76.0427 15.788 77.6867 15.344 79.5347 15.344ZM92.4885 35V15.632H98.1045V35H92.4885ZM95.2965 12.932C94.2645 12.932 93.4245 12.632 92.7765 12.032C92.1285 11.432 91.8045 10.688 91.8045 9.8C91.8045 8.912 92.1285 8.168 92.7765 7.568C93.4245 6.968 94.2645 6.668 95.2965 6.668C96.3285 6.668 97.1685 6.956 97.8165 7.532C98.4645 8.084 98.7885 8.804 98.7885 9.692C98.7885 10.628 98.4645 11.408 97.8165 12.032C97.1925 12.632 96.3525 12.932 95.2965 12.932ZM115.089 15.344C116.625 15.344 117.993 15.656 119.193 16.28C120.417 16.88 121.377 17.816 122.073 19.088C122.769 20.336 123.117 21.944 123.117 23.912V35H117.501V24.776C117.501 23.216 117.153 22.064 116.457 21.32C115.785 20.576 114.825 20.204 113.577 20.204C112.689 20.204 111.885 20.396 111.165 20.78C110.469 21.14 109.917 21.704 109.509 22.472C109.125 23.24 108.933 24.224 108.933 25.424V35H103.317V15.632H108.681V20.996L107.673 19.376C108.369 18.08 109.365 17.084 110.661 16.388C111.957 15.692 113.433 15.344 115.089 15.344ZM137.456 42.272C135.632 42.272 133.868 42.044 132.164 41.588C130.484 41.156 129.08 40.496 127.952 39.608L130.184 35.576C131 36.248 132.032 36.776 133.28 37.16C134.552 37.568 135.8 37.772 137.024 37.772C139.016 37.772 140.456 37.328 141.344 36.44C142.256 35.552 142.712 34.232 142.712 32.48V29.564L143.072 24.704L143 19.808V15.632H148.328V31.76C148.328 35.36 147.392 38.012 145.52 39.716C143.648 41.42 140.96 42.272 137.456 42.272ZM136.592 34.064C134.792 34.064 133.16 33.68 131.696 32.912C130.256 32.12 129.092 31.028 128.204 29.636C127.34 28.22 126.908 26.576 126.908 24.704C126.908 22.808 127.34 21.164 128.204 19.772C129.092 18.356 130.256 17.264 131.696 16.496C133.16 15.728 134.792 15.344 136.592 15.344C138.224 15.344 139.664 15.68 140.912 16.352C142.16 17 143.132 18.02 143.828 19.412C144.524 20.78 144.872 22.544 144.872 24.704C144.872 26.84 144.524 28.604 143.828 29.996C143.132 31.364 142.16 32.384 140.912 33.056C139.664 33.728 138.224 34.064 136.592 34.064ZM137.708 29.456C138.692 29.456 139.568 29.264 140.336 28.88C141.104 28.472 141.704 27.908 142.136 27.188C142.568 26.468 142.784 25.64 142.784 24.704C142.784 23.744 142.568 22.916 142.136 22.22C141.704 21.5 141.104 20.948 140.336 20.564C139.568 20.156 138.692 19.952 137.708 19.952C136.724 19.952 135.848 20.156 135.08 20.564C134.312 20.948 133.7 21.5 133.244 22.22C132.812 22.916 132.596 23.744 132.596 24.704C132.596 25.64 132.812 26.468 133.244 27.188C133.7 27.908 134.312 28.472 135.08 28.88C135.848 29.264 136.724 29.456 137.708 29.456ZM172.426 35.432C170.41 35.432 168.478 35.168 166.63 34.64C164.782 34.088 163.294 33.38 162.166 32.516L164.146 28.124C165.226 28.892 166.498 29.528 167.962 30.032C169.45 30.512 170.95 30.752 172.462 30.752C173.614 30.752 174.538 30.644 175.234 30.428C175.954 30.188 176.482 29.864 176.818 29.456C177.154 29.048 177.322 28.58 177.322 28.052C177.322 27.38 177.058 26.852 176.53 26.468C176.002 26.06 175.306 25.736 174.442 25.496C173.578 25.232 172.618 24.992 171.562 24.776C170.53 24.536 169.486 24.248 168.43 23.912C167.398 23.576 166.45 23.144 165.586 22.616C164.722 22.088 164.014 21.392 163.462 20.528C162.934 19.664 162.67 18.56 162.67 17.216C162.67 15.776 163.054 14.468 163.822 13.292C164.614 12.092 165.79 11.144 167.35 10.448C168.934 9.728 170.914 9.368 173.29 9.368C174.874 9.368 176.434 9.56 177.97 9.944C179.506 10.304 180.862 10.856 182.038 11.6L180.238 16.028C179.062 15.356 177.886 14.864 176.71 14.552C175.534 14.216 174.382 14.048 173.254 14.048C172.126 14.048 171.202 14.18 170.482 14.444C169.762 14.708 169.246 15.056 168.934 15.488C168.622 15.896 168.466 16.376 168.466 16.928C168.466 17.576 168.73 18.104 169.258 18.512C169.786 18.896 170.482 19.208 171.346 19.448C172.21 19.688 173.158 19.928 174.19 20.168C175.246 20.408 176.29 20.684 177.322 20.996C178.378 21.308 179.338 21.728 180.202 22.256C181.066 22.784 181.762 23.48 182.29 24.344C182.842 25.208 183.118 26.3 183.118 27.62C183.118 29.036 182.722 30.332 181.93 31.508C181.138 32.684 179.95 33.632 178.366 34.352C176.806 35.072 174.826 35.432 172.426 35.432ZM195.923 35.288C193.859 35.288 192.023 34.856 190.415 33.992C188.831 33.128 187.571 31.952 186.635 30.464C185.723 28.952 185.267 27.236 185.267 25.316C185.267 23.372 185.723 21.656 186.635 20.168C187.571 18.656 188.831 17.48 190.415 16.64C192.023 15.776 193.859 15.344 195.923 15.344C197.963 15.344 199.787 15.776 201.395 16.64C203.003 17.48 204.263 18.644 205.175 20.132C206.087 21.62 206.543 23.348 206.543 25.316C206.543 27.236 206.087 28.952 205.175 30.464C204.263 31.952 203.003 33.128 201.395 33.992C199.787 34.856 197.963 35.288 195.923 35.288ZM195.923 30.68C196.859 30.68 197.699 30.464 198.443 30.032C199.187 29.6 199.775 28.988 200.207 28.196C200.639 27.38 200.855 26.42 200.855 25.316C200.855 24.188 200.639 23.228 200.207 22.436C199.775 21.644 199.187 21.032 198.443 20.6C197.699 20.168 196.859 19.952 195.923 19.952C194.987 19.952 194.147 20.168 193.403 20.6C192.659 21.032 192.059 21.644 191.603 22.436C191.171 23.228 190.955 24.188 190.955 25.316C190.955 26.42 191.171 27.38 191.603 28.196C192.059 28.988 192.659 29.6 193.403 30.032C194.147 30.464 194.987 30.68 195.923 30.68ZM219.513 35.288C217.449 35.288 215.613 34.856 214.005 33.992C212.421 33.128 211.161 31.952 210.225 30.464C209.313 28.952 208.857 27.236 208.857 25.316C208.857 23.372 209.313 21.656 210.225 20.168C211.161 18.656 212.421 17.48 214.005 16.64C215.613 15.776 217.449 15.344 219.513 15.344C221.553 15.344 223.377 15.776 224.985 16.64C226.593 17.48 227.853 18.644 228.765 20.132C229.677 21.62 230.133 23.348 230.133 25.316C230.133 27.236 229.677 28.952 228.765 30.464C227.853 31.952 226.593 33.128 224.985 33.992C223.377 34.856 221.553 35.288 219.513 35.288ZM219.513 30.68C220.449 30.68 221.289 30.464 222.033 30.032C222.777 29.6 223.365 28.988 223.797 28.196C224.229 27.38 224.445 26.42 224.445 25.316C224.445 24.188 224.229 23.228 223.797 22.436C223.365 21.644 222.777 21.032 222.033 20.6C221.289 20.168 220.449 19.952 219.513 19.952C218.577 19.952 217.737 20.168 216.993 20.6C216.249 21.032 215.649 21.644 215.193 22.436C214.761 23.228 214.545 24.188 214.545 25.316C214.545 26.42 214.761 27.38 215.193 28.196C215.649 28.988 216.249 29.6 216.993 30.032C217.737 30.464 218.577 30.68 219.513 30.68ZM245.659 15.344C247.195 15.344 248.563 15.656 249.763 16.28C250.987 16.88 251.947 17.816 252.643 19.088C253.339 20.336 253.687 21.944 253.687 23.912V35H248.071V24.776C248.071 23.216 247.723 22.064 247.027 21.32C246.355 20.576 245.395 20.204 244.147 20.204C243.259 20.204 242.455 20.396 241.735 20.78C241.039 21.14 240.487 21.704 240.079 22.472C239.695 23.24 239.503 24.224 239.503 25.424V35H233.887V15.632H239.251V20.996L238.243 19.376C238.939 18.08 239.935 17.084 241.231 16.388C242.527 15.692 244.003 15.344 245.659 15.344Z" fill="url(#paint0_linear_40_6734)"/>
<defs>
<linearGradient id="paint0_linear_40_6734" x1="129.5" y1="0" x2="129.5" y2="55" gradientUnits="userSpaceOnUse">
<stop stop-color="white"/>
<stop offset="1" stop-color="white" stop-opacity="0"/>
</linearGradient>
</defs>
</svg>
