<svg width="97" height="97" viewBox="0 0 97 97" fill="none" xmlns="http://www.w3.org/2000/svg">
<path d="M11.7151 19.6125H84.724V78.3822H11.7151V19.6125Z" fill="#595758"/>
<path d="M0 48.3284C0 75.019 21.6369 96.6559 48.3274 96.6559C75.018 96.6559 96.6532 75.019 96.6532 48.3284C96.6532 21.6379 75.018 0.000976562 48.3274 0.000976562C21.6369 0.000976562 0 21.6379 0 48.3284ZM51.2737 30.7217L74.0911 53.5443C75.718 55.1638 75.718 57.8027 74.0911 59.4303C72.4663 61.0538 69.8301 61.0538 68.2033 59.4303L48.3286 39.5522L28.4488 59.432C26.8233 61.0589 24.1865 61.0541 22.561 59.432C21.7472 58.6209 21.3407 57.5522 21.3407 56.4851C21.3407 55.4179 21.7472 54.3526 22.561 53.5381L45.3784 30.7207C47.006 29.0951 49.6463 29.0951 51.2744 30.722L51.2737 30.7217Z" fill="#F49F1C"/>
</svg>
