<svg width="77" height="24" viewBox="0 0 77 24" fill="none" xmlns="http://www.w3.org/2000/svg">
<path d="M71.3927 1.09839H66.6054C65.158 1.09839 64.0447 1.5394 63.3767 2.97253L54.2473 23.5874H60.7046C60.7046 23.5874 61.818 20.8315 62.0407 20.17C62.7087 20.17 69.0547 20.17 69.9453 20.17C70.1681 20.9417 70.7247 23.4772 70.7247 23.4772H76.5141L71.3927 1.09839ZM63.822 15.5399C64.3787 14.217 66.2714 9.25618 66.2714 9.25618C66.2714 9.36641 66.828 7.93338 67.0507 7.16171L67.496 9.14596C67.496 9.14596 68.7207 14.5477 68.9434 15.6502H63.822V15.5399Z" fill="white"/>
<path d="M54.6957 16.2006C54.6957 20.8307 50.465 23.9174 43.8964 23.9174C41.113 23.9174 38.441 23.3663 36.9937 22.7048L37.8843 17.6337L38.6636 17.9644C40.6677 18.8464 42.0036 19.1771 44.4531 19.1771C46.2344 19.1771 48.127 18.5156 48.127 16.9723C48.127 15.9802 47.3476 15.3187 44.8983 14.2162C42.5603 13.1139 39.443 11.3501 39.443 8.15303C39.443 3.74352 43.785 0.767029 49.9084 0.767029C52.2464 0.767029 54.2503 1.20792 55.4751 1.75916L54.5844 6.60967L54.139 6.16878C53.0257 5.72777 51.5784 5.28688 49.463 5.28688C47.125 5.3971 46.0117 6.38923 46.0117 7.27113C46.0117 8.26337 47.3476 9.03505 49.463 10.0272C53.0257 11.6808 54.6957 13.5549 54.6957 16.2006Z" fill="white"/>
<path d="M0.36438 1.31815L0.475713 0.877136H10.0504C11.3865 0.877136 12.3884 1.31814 12.7225 2.75128L14.8378 12.6729C12.7225 7.38135 7.82376 3.08195 0.36438 1.31815Z" fill="#F9B50B"/>
<path d="M28.3089 1.09801L18.6228 23.4768H12.0541L6.48743 4.73596C10.4955 7.27144 13.8355 11.2402 15.0602 13.9961L15.7282 16.3111L21.7402 0.987793H28.3089V1.09801Z" fill="white"/>
<path d="M30.8686 0.987915H36.992L33.0953 23.4769H26.9719L30.8686 0.987915Z" fill="white"/>
</svg>
